<?xml version="1.0" encoding="UTF-8"?><svg id="Layer_1" xmlns="http://www.w3.org/2000/svg" viewBox="0 0 4118.62 4000"><defs><style>.cls-1,.cls-2{fill:none;}.cls-2{stroke:#6f00f6;stroke-linecap:round;stroke-linejoin:round;stroke-width:96px;}.cls-3{fill:#231f20;}.cls-4{fill:#e6e7e8;opacity:0;}</style></defs><path class="cls-2" d="m2059.31,349.2l990.11,568.87v1137.73l-990.11,568.87-990.12-568.87V918.07l990.12-568.87Zm-416.3,898.55v478.36l416.3,239.18,416.3-239.18v-478.36l-416.3-239.18-416.3,239.18Zm416.3,239.18v1137.73m-987.39-1705.03l987.39,567.3,990.11-568.87"/><path class="cls-3" d="m299.1,2974.58h137.09v288.71h18.7l235.74-288.71h175.51l-303.25,358.3,313.64,368.68h-180.71l-240.94-294.95h-18.7v294.95h-137.09v-726.98Z"/><path class="cls-3" d="m901.4,3425.3v-174.47c0-186.94,116.31-290.8,299.09-290.8s299.11,103.86,299.11,290.8v174.47c0,186.94-116.33,290.8-299.11,290.8s-299.09-103.86-299.09-290.8Zm461.11,4.16v-182.78c0-99.7-60.24-164.09-162.02-164.09s-162.01,64.39-162.01,164.09v182.78c0,99.7,60.23,164.09,162.01,164.09s162.02-64.39,162.02-164.09Z"/><path class="cls-3" d="m1620.01,2974.58h137.09v726.98h-137.09v-726.98Z"/><path class="cls-3" d="m1894.16,2974.58h260.68l144.36,633.51h18.69v-633.51h135.02v726.98h-260.68l-144.36-633.51h-18.69v633.51h-135.02v-726.98Z"/><path class="cls-3" d="m2573.32,3425.3v-174.47c0-186.94,116.31-290.8,299.09-290.8s299.11,103.86,299.11,290.8v174.47c0,186.94-116.33,290.8-299.11,290.8s-299.09-103.86-299.09-290.8Zm461.11,4.16v-182.78c0-99.7-60.24-164.09-162.02-164.09s-162.01,64.39-162.01,164.09v182.78c0,99.7,60.23,164.09,162.01,164.09s162.02-64.39,162.02-164.09Z"/><path class="cls-3" d="m3258.69,3464.77v-29.08h135v29.08c0,87.24,57.13,130.86,150.6,130.86s140.2-41.54,140.2-99.7-52.96-81-146.43-101.78l-23.89-5.19c-150.6-33.23-238.87-84.12-238.87-217.06s100.74-211.87,256.52-211.87,268.98,78.93,268.98,236.79v31.16h-135v-31.16c0-83.08-50.89-116.31-133.98-116.31s-121.51,33.23-121.51,87.24,40.51,79.97,127.75,98.67l23.87,5.19c154.75,33.23,257.57,87.24,257.57,220.17s-106.98,224.33-275.22,224.33-285.6-93.47-285.6-251.33Z"/><path class="cls-1" d="m-97.61,1945.9v135.83c0,74.09,44.76,121.94,120.39,121.94,0,0,0,0,0,0v-379.7s0,0,0,0c-75.63,0-120.39,47.85-120.39,121.94Z"/><path class="cls-1" d="m143.17,2081.72v-135.83c0-74.09-44.76-121.93-120.39-121.94v379.7c75.63,0,120.39-47.85,120.39-121.94Z"/><path class="cls-4" d="m1681.27,2974.58h122.55c0-101.77,64.39-162.01,164.09-162.01h182.78c99.7,0,164.09,60.24,164.09,162.01h122.55c0-182.78-103.86-299.1-290.8-299.1h-174.47c-186.94,0-290.8,116.32-290.8,299.1Z"/><path class="cls-4" d="m1681.27,4000.67h122.55c0-101.77,64.39-162.01,164.09-162.01h182.78c99.7,0,164.09,60.24,164.09,162.01h122.55c0-182.78-103.86-299.1-290.8-299.1h-174.47c-186.94,0-290.8,116.32-290.8,299.1Z"/><path class="cls-4" d="m2437.34,0h-122.55c0,101.77-64.39,162.01-164.09,162.01h-182.78c-99.7,0-164.09-60.24-164.09-162.01h-122.55c0,182.78,103.86,299.1,290.8,299.1h174.47c186.94,0,290.8-116.33,290.8-299.1Z"/><path class="cls-4" d="m4118.62,3716.1v-122.55c-101.77,0-162.01-64.39-162.01-164.09v-182.78c0-99.7,60.24-164.09,162.01-164.09v-122.55c-182.78,0-299.1,103.86-299.1,290.8v174.47c0,186.94,116.33,290.8,299.1,290.8Z"/><path class="cls-4" d="m0,2960.03v122.55c101.77,0,162.01,64.39,162.01,164.09v182.78c0,99.7-60.24,164.09-162.01,164.09v122.55c182.78,0,299.1-103.86,299.1-290.8v-174.47c0-186.94-116.33-290.8-299.1-290.8Z"/></svg>