<?xml version="1.0" encoding="UTF-8"?><svg id="Layer_1" xmlns="http://www.w3.org/2000/svg" viewBox="0 0 2819.79 741.72"><defs><style>.cls-1{fill:#fff;}</style></defs><g id="logo_text"><path class="cls-1" d="m101.87,101.87h101.87v214.55h13.9l175.18-214.55h130.43l-225.35,266.26,233.07,273.97h-134.29l-179.04-219.18h-13.9v219.18h-101.87V101.87Z"/><path class="cls-1" d="m549.45,436.81v-129.65c0-138.92,86.43-216.09,222.26-216.09s222.27,77.18,222.27,216.09v129.65c0,138.92-86.44,216.09-222.27,216.09s-222.26-77.18-222.26-216.09Zm342.66,3.09v-135.83c0-74.09-44.77-121.94-120.4-121.94s-120.39,47.85-120.39,121.94v135.83c0,74.09,44.76,121.94,120.39,121.94s120.4-47.85,120.4-121.94Z"/><path class="cls-1" d="m1083.45,101.87h101.87v540.23h-101.87V101.87Z"/><path class="cls-1" d="m1287.17,101.87h193.72l107.27,470.77h13.89V101.87h100.33v540.23h-193.72l-107.27-470.77h-13.89v470.77h-100.33V101.87Z"/><path class="cls-1" d="m1791.86,436.81v-129.65c0-138.92,86.43-216.09,222.26-216.09s222.27,77.18,222.27,216.09v129.65c0,138.92-86.44,216.09-222.27,216.09s-222.26-77.18-222.26-216.09Zm342.66,3.09v-135.83c0-74.09-44.77-121.94-120.4-121.94s-120.39,47.85-120.39,121.94v135.83c0,74.09,44.76,121.94,120.39,121.94s120.4-47.85,120.4-121.94Z"/><path class="cls-1" d="m2301.17,466.14v-21.61h100.32v21.61c0,64.83,42.45,97.24,111.91,97.24s104.19-30.87,104.19-74.09-39.35-60.19-108.81-75.63l-17.75-3.86c-111.91-24.7-177.5-62.51-177.5-161.3s74.86-157.44,190.62-157.44,199.88,58.66,199.88,175.96v23.15h-100.32v-23.15c0-61.74-37.82-86.43-99.56-86.43s-90.3,24.7-90.3,64.83,30.1,59.42,94.93,73.32l17.74,3.86c115,24.7,191.4,64.83,191.4,163.61s-79.49,166.7-204.52,166.7-212.23-69.46-212.23-186.77Z"/></g></svg>