<?xml version="1.0" encoding="UTF-8" standalone="no"?>
<!DOCTYPE svg PUBLIC "-//W3C//DTD SVG 1.1//EN" "http://www.w3.org/Graphics/SVG/1.1/DTD/svg11.dtd">
<svg width="100%" height="100%" viewBox="0 0 1419 531" version="1.1" xmlns="http://www.w3.org/2000/svg" xmlns:xlink="http://www.w3.org/1999/xlink" xml:space="preserve" xmlns:serif="http://www.serif.com/" style="fill-rule:evenodd;clip-rule:evenodd;stroke-linejoin:round;stroke-miterlimit:2;">
    <g transform="matrix(1,0,0,1,-12074,-3330)">
        <g id="koinos-logo-with-tagline-dark" transform="matrix(0.687441,0,0,0.547925,12074.9,2498.47)">
            <rect x="0" y="1518.87" width="2062.72" height="967.285" style="fill:none;"/>
            <g transform="matrix(1.18242,0,0,1.42394,-64.2786,-722.891)">
                <g id="logo" transform="matrix(1.23025,0,0,1.2817,-12886,-2732.81)">
                    <path d="M11551.8,3518.38C11501.6,3518.38 11467.8,3540.72 11467.8,3577.24C11467.8,3613.77 11496.4,3628.56 11542,3637.62L11557,3640.64C11589.1,3646.98 11609,3654.53 11609,3675.96C11609,3697.09 11589.1,3711.88 11553.5,3711.88C11517.6,3711.88 11493.9,3696.49 11493.9,3663.88L11493.9,3661.17L11459.8,3661.17L11459.8,3663.88C11459.8,3712.49 11498.8,3738.14 11553.5,3738.14C11607.9,3738.14 11642.8,3712.79 11642.8,3675.36C11642.8,3637.62 11610.7,3623.13 11565,3614.07L11550.1,3611.06C11518.3,3604.72 11502,3597.17 11502,3576.64C11502,3556.11 11520.8,3544.64 11551.8,3544.64C11583.5,3544.64 11605.8,3556.11 11605.8,3584.79L11605.8,3592.94L11640,3592.94L11640,3584.79C11640,3540.72 11602,3518.38 11551.8,3518.38ZM10759.5,3603.81L10759.5,3652.71C10759.5,3708.26 10797.5,3738.14 10856.7,3738.14C10916,3738.14 10954,3708.26 10954,3652.71L10954,3603.81C10954,3548.26 10916,3518.38 10856.7,3518.38C10797.5,3518.38 10759.5,3548.26 10759.5,3603.81ZM11252,3603.81L11252,3652.71C11252,3708.26 11290,3738.14 11349.3,3738.14C11408.5,3738.14 11446.5,3708.26 11446.5,3652.71L11446.5,3603.81C11446.5,3548.26 11408.5,3518.38 11349.3,3518.38C11290,3518.38 11252,3548.26 11252,3603.81ZM10767.6,3522.61L10718.5,3522.61L10604.5,3618.6L10601,3618.6L10601,3522.61L10566.5,3522.61L10566.5,3733.92L10601,3733.92L10601,3658.45L10636.5,3629.47L10720.9,3733.92L10763.8,3733.92L10660.9,3609.55L10767.6,3522.61ZM10979.1,3522.61L10979.1,3733.92L11013.6,3733.92L11013.6,3522.61L10979.1,3522.61ZM11047.1,3522.61L11047.1,3733.92L11081.6,3733.92L11081.6,3553.7L11085.1,3553.7L11168,3733.92L11226.9,3733.92L11226.9,3522.61L11192.4,3522.61L11192.4,3702.83L11188.9,3702.83L11106,3522.61L11047.1,3522.61ZM10794,3602.6C10794,3566.98 10817.3,3544.94 10856.7,3544.94C10896.1,3544.94 10919.5,3566.98 10919.5,3602.6L10919.5,3653.92C10919.5,3689.54 10896.1,3711.58 10856.7,3711.58C10817.3,3711.58 10794,3689.54 10794,3653.92L10794,3602.6ZM11286.5,3602.6C11286.5,3566.98 11309.9,3544.94 11349.3,3544.94C11388.7,3544.94 11412,3566.98 11412,3602.6L11412,3653.92C11412,3689.54 11388.7,3711.58 11349.3,3711.58C11309.9,3711.58 11286.5,3689.54 11286.5,3653.92L11286.5,3602.6Z" style="fill:rgb(54,35,93);fill-rule:nonzero;"/>
                </g>
                <g id="mark" transform="matrix(0.598462,0,0,0.623488,1295.05,-397.297)">
                    <path d="M345.135,3373.44C345.135,3373.44 540,3260.93 540,3260.93L734.865,3373.44C735.406,3373.75 735.74,3374.33 735.74,3374.95L735.74,3598.95C735.74,3599.58 735.406,3600.15 734.865,3600.47L540.875,3712.47L540.85,3712.48L540.824,3712.49L540.798,3712.51L540.772,3712.52L540.746,3712.53L540.72,3712.55L540.693,3712.56L540.667,3712.57L540.64,3712.58L540.613,3712.59L540.586,3712.6L540.559,3712.61L540.532,3712.62L540.504,3712.63L540.477,3712.64L540.449,3712.64L540.422,3712.65L540.394,3712.66L540.366,3712.66L540.338,3712.67L540.31,3712.67L540.282,3712.68L540.254,3712.68L540.226,3712.69L540.198,3712.69L540.165,3712.69L540.138,3712.7L540.108,3712.7L540.071,3712.7L540.042,3712.7L540.014,3712.7L539.986,3712.7L539.958,3712.7L539.925,3712.7L539.895,3712.7L539.858,3712.7L539.83,3712.69L539.802,3712.69L539.774,3712.69L539.746,3712.68L539.718,3712.68L539.69,3712.67L539.662,3712.67L539.634,3712.66L539.606,3712.66L539.578,3712.65L539.551,3712.64L539.523,3712.64L539.496,3712.63L539.468,3712.62L539.441,3712.61L539.414,3712.6L539.387,3712.59L539.36,3712.58L539.333,3712.57L539.307,3712.56L539.28,3712.55L539.254,3712.53L539.228,3712.52L539.202,3712.51L539.176,3712.49L539.15,3712.48L539.125,3712.47C539.125,3712.47 345.135,3600.47 345.135,3600.47C344.594,3600.15 344.26,3599.58 344.26,3598.95L344.26,3374.95C344.26,3374.33 344.594,3373.75 345.135,3373.44ZM347.76,3597.94L538.25,3707.92L538.25,3583.96L455.987,3536.47C455.445,3536.15 455.112,3535.58 455.112,3534.95L455.112,3439.96L347.76,3377.98L347.76,3597.94ZM624.888,3439.96L624.888,3535.96L541.75,3583.96L541.75,3707.92L732.24,3597.94L732.24,3377.98L624.888,3439.96ZM458.612,3533.94L538.25,3579.92L538.25,3487.96L458.612,3441.98L458.612,3533.94ZM621.388,3442.63L541.75,3488.61L541.75,3579.92L621.388,3533.94L621.388,3442.63ZM460.362,3438.95L540,3484.93L619.638,3438.95L540,3392.97L460.362,3438.95ZM540,3388.93L623.138,3436.93L730.49,3374.95L540,3264.97L349.51,3374.95L456.862,3436.93L540,3388.93Z" style="fill:none;stroke:rgb(54,35,93);stroke-width:16.45px;"/>
                </g>
            </g>
            <g transform="matrix(1.45467,0,0,1.82507,-17565,-4559.88)">
                <path d="M12864.6,3798.44L12864.6,3793.91L12867.6,3793.91C12870,3793.91 12871.1,3792.9 12871.1,3790.87L12871.1,3788.61L12869.8,3788.61C12867.8,3788.61 12866.1,3788.07 12864.8,3787.01C12863.4,3785.95 12862.7,3784.59 12862.7,3782.94C12862.7,3781.2 12863.4,3779.77 12864.8,3778.66C12866.1,3777.55 12867.8,3777 12869.8,3777C12871.9,3777 12873.6,3777.56 12874.9,3778.7C12876.2,3779.83 12876.9,3781.31 12876.9,3783.16L12876.9,3790.94C12876.9,3795.94 12874,3798.44 12868.3,3798.44L12864.6,3798.44ZM12676.1,3789.38C12672.2,3789.38 12668.6,3788.68 12665.5,3787.26C12662.3,3785.84 12659.8,3783.79 12658,3781.1C12656.2,3778.41 12655.3,3775.18 12655.3,3771.4L12655.3,3770.41C12655.3,3766.64 12656.2,3763.41 12658,3760.72C12659.8,3758.03 12662.3,3755.97 12665.5,3754.56C12668.6,3753.14 12672.2,3752.43 12676.1,3752.43C12680,3752.43 12683.3,3753.02 12686,3754.2C12688.8,3755.38 12691,3757 12692.7,3759.05C12694.4,3761.11 12695.5,3763.41 12696,3765.95L12686.9,3767.58C12686.7,3766.12 12686.2,3764.79 12685.4,3763.58C12684.5,3762.38 12683.4,3761.42 12681.9,3760.72C12680.4,3760.01 12678.5,3759.65 12676.4,3759.65C12674.1,3759.65 12672.1,3760.07 12670.4,3760.89C12668.6,3761.72 12667.2,3762.96 12666.2,3764.61C12665.2,3766.26 12664.7,3768.24 12664.7,3770.56L12664.7,3771.26C12664.7,3773.58 12665.2,3775.55 12666.2,3777.17C12667.2,3778.8 12668.6,3780.04 12670.4,3780.89C12672.1,3781.74 12674.1,3782.16 12676.4,3782.16C12679.7,3782.16 12682.2,3781.42 12683.9,3779.93C12685.6,3778.45 12686.7,3776.52 12687.1,3774.16L12696.2,3776.01C12695.6,3778.46 12694.4,3780.7 12692.7,3782.73C12691,3784.76 12688.8,3786.38 12686,3787.58C12683.3,3788.78 12680,3789.38 12676.1,3789.38ZM13157.6,3789.38C13154.3,3789.38 13151.3,3788.69 13148.4,3787.3C13145.6,3785.9 13143.3,3783.86 13141.6,3781.17C13139.9,3778.48 13139.1,3775.25 13139.1,3771.47L13139.1,3770.34C13139.1,3766.57 13139.9,3763.34 13141.6,3760.64C13143.3,3757.95 13145.6,3755.91 13148.4,3754.52C13151.2,3753.13 13154.2,3752.43 13157.6,3752.43C13160.1,3752.43 13162.2,3752.69 13164,3753.21C13165.7,3753.73 13167.1,3754.39 13168.2,3755.19C13169.2,3756 13170.1,3756.87 13170.7,3757.81L13172,3757.81L13172,3738.84L13181.4,3738.84L13181.4,3788.39L13172.2,3788.39L13172.2,3783.79L13170.8,3783.79C13169.8,3785.21 13168.3,3786.49 13166.3,3787.65C13164.3,3788.81 13161.4,3789.38 13157.6,3789.38ZM13005.9,3789.38C13001.9,3789.38 12998.3,3788.66 12995.1,3787.22C12991.9,3785.78 12989.4,3783.73 12987.6,3781.07C12985.8,3778.4 12984.9,3775.2 12984.9,3771.47L12984.9,3770.34C12984.9,3766.61 12985.8,3763.41 12987.6,3760.72C12989.4,3758.03 12991.9,3755.97 12995.1,3754.56C12998.3,3753.14 13001.9,3752.43 13005.9,3752.43C13010,3752.43 13013.6,3753.14 13016.7,3754.56C13019.9,3755.97 13022.4,3758.03 13024.2,3760.72C13026,3763.41 13026.9,3766.61 13026.9,3770.34L13026.9,3771.47C13026.9,3775.2 13026,3778.4 13024.2,3781.07C13022.4,3783.73 13019.9,3785.78 13016.7,3787.22C13013.6,3788.66 13010,3789.38 13005.9,3789.38ZM13197.1,3789.38C13195,3789.38 13193.3,3788.79 13191.9,3787.61C13190.5,3786.43 13189.8,3784.92 13189.8,3783.08C13189.8,3781.29 13190.5,3779.8 13191.9,3778.62C13193.3,3777.45 13195,3776.86 13197.1,3776.86C13199.1,3776.86 13200.8,3777.45 13202.2,3778.62C13203.6,3779.8 13204.2,3781.31 13204.2,3783.16C13204.2,3784.99 13203.6,3786.49 13202.2,3787.65C13200.8,3788.81 13199.1,3789.38 13197.1,3789.38ZM12540.7,3789.38C12536.7,3789.38 12533,3788.66 12529.9,3787.22C12526.7,3785.78 12524.2,3783.73 12522.3,3781.07C12520.5,3778.4 12519.6,3775.2 12519.6,3771.47L12519.6,3770.34C12519.6,3766.61 12520.5,3763.41 12522.3,3760.72C12524.2,3758.03 12526.7,3755.97 12529.9,3754.56C12533,3753.14 12536.7,3752.43 12540.7,3752.43C12544.7,3752.43 12548.3,3753.14 12551.5,3754.56C12554.6,3755.97 12557.1,3758.03 12559,3760.72C12560.8,3763.41 12561.7,3766.61 12561.7,3770.34L12561.7,3771.47C12561.7,3775.2 12560.8,3778.4 12559,3781.07C12557.1,3783.73 12554.6,3785.78 12551.5,3787.22C12548.3,3788.66 12544.7,3789.38 12540.7,3789.38ZM12764.1,3789.38C12761.2,3789.38 12758.7,3788.95 12756.4,3788.07C12754.1,3787.2 12752.3,3785.94 12750.9,3784.29C12749.6,3782.64 12748.9,3780.61 12748.9,3778.2C12748.9,3775.84 12749.6,3773.86 12750.9,3772.25C12752.3,3770.65 12754.1,3769.43 12756.5,3768.61C12758.8,3767.78 12761.5,3767.37 12764.5,3767.37L12776.2,3767.37L12776.2,3765.25C12776.2,3763.41 12775.5,3761.91 12774.2,3760.75C12772.9,3759.6 12770.8,3759.02 12768.1,3759.02C12765.3,3759.02 12763.3,3759.57 12761.9,3760.68C12760.5,3761.79 12759.6,3763.22 12759.2,3764.96L12750.5,3762.49C12751.1,3760.64 12752.2,3758.97 12753.6,3757.46C12755.1,3755.95 12757,3754.73 12759.4,3753.81C12761.8,3752.89 12764.7,3752.43 12768.2,3752.43C12773.5,3752.43 12777.7,3753.58 12780.7,3755.87C12783.7,3758.16 12785.2,3761.47 12785.2,3765.81L12785.2,3779.54C12785.2,3780.96 12786,3781.67 12787.5,3781.67L12791,3781.67L12791,3788.39L12784.3,3788.39C12782.4,3788.39 12780.8,3787.97 12779.5,3787.12C12778.3,3786.27 12777.6,3785.11 12777.6,3783.65L12777.6,3783.51L12776.2,3783.51C12775.9,3784.17 12775.3,3784.97 12774.5,3785.91C12773.7,3786.86 12772.5,3787.67 12770.8,3788.36C12769.1,3789.04 12766.9,3789.38 12764.1,3789.38ZM12588.5,3789.38C12584.6,3789.38 12581,3788.68 12577.9,3787.26C12574.7,3785.84 12572.2,3783.79 12570.4,3781.1C12568.6,3778.41 12567.7,3775.18 12567.7,3771.4L12567.7,3770.41C12567.7,3766.64 12568.6,3763.41 12570.4,3760.72C12572.2,3758.03 12574.7,3755.97 12577.9,3754.56C12581,3753.14 12584.6,3752.43 12588.5,3752.43C12592.4,3752.43 12595.7,3753.02 12598.4,3754.2C12601.2,3755.38 12603.4,3757 12605.1,3759.05C12606.8,3761.11 12607.9,3763.41 12608.4,3765.95L12599.3,3767.58C12599.1,3766.12 12598.6,3764.79 12597.7,3763.58C12596.9,3762.38 12595.8,3761.42 12594.3,3760.72C12592.8,3760.01 12590.9,3759.65 12588.7,3759.65C12586.5,3759.65 12584.5,3760.07 12582.7,3760.89C12581,3761.72 12579.6,3762.96 12578.6,3764.61C12577.6,3766.26 12577.1,3768.24 12577.1,3770.56L12577.1,3771.26C12577.1,3773.58 12577.6,3775.55 12578.6,3777.17C12579.6,3778.8 12581,3780.04 12582.7,3780.89C12584.5,3781.74 12586.5,3782.16 12588.7,3782.16C12592.1,3782.16 12594.6,3781.42 12596.3,3779.93C12598,3778.45 12599.1,3776.52 12599.5,3774.16L12608.6,3776.01C12608,3778.46 12606.8,3780.7 12605.1,3782.73C12603.4,3784.76 12601.2,3786.38 12598.4,3787.58C12595.7,3788.78 12592.4,3789.38 12588.5,3789.38ZM13114.1,3789.38C13110.1,3789.38 13106.5,3788.64 13103.4,3787.15C13100.3,3785.67 13097.9,3783.57 13096.2,3780.85C13094.5,3778.14 13093.7,3774.97 13093.7,3771.33L13093.7,3770.48C13093.7,3766.8 13094.5,3763.62 13096.2,3760.93C13097.9,3758.24 13100.2,3756.15 13103.3,3754.66C13106.4,3753.18 13109.9,3752.43 13113.8,3752.43C13117.8,3752.43 13121.2,3753.18 13124.1,3754.66C13127.1,3756.15 13129.4,3758.24 13131,3760.93C13132.6,3763.62 13133.5,3766.76 13133.5,3770.34L13133.5,3773.24L13103.1,3773.24C13103.2,3775.98 13104.4,3778.18 13106.5,3779.83C13108.6,3781.48 13111.2,3782.31 13114.3,3782.31C13117.4,3782.31 13119.6,3781.73 13121.1,3780.57C13122.6,3779.41 13123.7,3778.11 13124.5,3776.64L13132.2,3780.11C13131.5,3781.39 13130.4,3782.74 13128.9,3784.18C13127.5,3785.62 13125.6,3786.85 13123.2,3787.86C13120.8,3788.88 13117.7,3789.38 13114.1,3789.38ZM12447.9,3788.39L12447.9,3780.89L12455.6,3780.89L12455.6,3746.35L12447.9,3746.35L12447.9,3738.84L12477.2,3738.84C12480.6,3738.84 12483.6,3739.35 12486.2,3740.37C12488.8,3741.38 12490.8,3742.82 12492.3,3744.68C12493.7,3746.55 12494.4,3748.78 12494.4,3751.37L12494.4,3752.01C12494.4,3754.27 12493.9,3756.14 12493,3757.6C12492,3759.06 12490.8,3760.2 12489.4,3761C12488.1,3761.8 12486.8,3762.37 12485.5,3762.7L12485.5,3763.9C12486.8,3764.18 12488.1,3764.72 12489.6,3765.49C12491,3766.27 12492.2,3767.41 12493.2,3768.89C12494.2,3770.38 12494.8,3772.3 12494.8,3774.66L12494.8,3775.37C12494.8,3778.06 12494,3780.38 12492.5,3782.34C12491,3784.3 12489,3785.8 12486.4,3786.84C12483.8,3787.87 12480.8,3788.39 12477.4,3788.39L12447.9,3788.39ZM12816,3788.39L12816,3753.43L12825.2,3753.43L12825.2,3758.31L12826.6,3758.31C12827.3,3756.99 12828.6,3755.74 12830.4,3754.56C12832.3,3753.38 12835.1,3752.79 12838.9,3752.79C12842,3752.79 12844.7,3753.4 12847.1,3754.63C12849.5,3755.86 12851.4,3757.55 12852.7,3759.72C12854,3761.89 12854.7,3764.47 12854.7,3767.44L12854.7,3788.39L12845.3,3788.39L12845.3,3768.08C12845.3,3765.25 12844.5,3763.13 12842.9,3761.74C12841.3,3760.35 12839,3759.65 12836.1,3759.65C12832.7,3759.65 12830.1,3760.61 12828.2,3762.52C12826.3,3764.43 12825.4,3767.16 12825.4,3770.7L12825.4,3788.39L12816,3788.39ZM12954.3,3788.39L12941,3753.43L12951,3753.43L12961,3782.45L12962.4,3782.45L12972.4,3753.43L12982.4,3753.43L12969.1,3788.39L12954.3,3788.39ZM12703.3,3788.39L12703.3,3738.84L12712.7,3738.84L12712.7,3758.03L12714.1,3758.03C12714.6,3757.22 12715.3,3756.42 12716.2,3755.62C12717.2,3754.82 12718.5,3754.16 12720.1,3753.64C12721.7,3753.12 12723.8,3752.86 12726.2,3752.86C12729.3,3752.86 12732.1,3753.46 12734.5,3754.66C12736.9,3755.87 12738.7,3757.55 12740.1,3759.72C12741.4,3761.89 12742.1,3764.47 12742.1,3767.44L12742.1,3788.39L12732.7,3788.39L12732.7,3768.08C12732.7,3765.25 12731.9,3763.13 12730.3,3761.74C12728.7,3760.35 12726.4,3759.65 12723.4,3759.65C12720.1,3759.65 12717.5,3760.61 12715.6,3762.52C12713.7,3764.43 12712.7,3767.16 12712.7,3770.7L12712.7,3788.39L12703.3,3788.39ZM13063.1,3788.39L13049.8,3753.43L13059.8,3753.43L13069.8,3782.45L13071.2,3782.45L13081.2,3753.43L13091.2,3753.43L13078,3788.39L13063.1,3788.39ZM12615.7,3788.39L12615.7,3738.84L12625.1,3738.84L12625.1,3766.66L12626.5,3766.66L12641.1,3753.43L12653.4,3753.43L12633.9,3770.34L12654.1,3788.39L12641.9,3788.39L12626.5,3774.16L12625.1,3774.16L12625.1,3788.39L12615.7,3788.39ZM12796.7,3788.39L12796.7,3753.43L12806.1,3753.43L12806.1,3788.39L12796.7,3788.39ZM12901.6,3788.39L12901.6,3738.84L12938.1,3738.84L12938.1,3746.56L12911.5,3746.56L12911.5,3759.58L12935.8,3759.58L12935.8,3767.3L12911.5,3767.3L12911.5,3780.68L12938.5,3780.68L12938.5,3788.39L12901.6,3788.39ZM12502.3,3788.39L12502.3,3738.84L12511.7,3738.84L12511.7,3788.39L12502.3,3788.39ZM13034.9,3788.39L13034.9,3738.84L13044.3,3738.84L13044.3,3788.39L13034.9,3788.39ZM12765.6,3782.73C12768.7,3782.73 12771.3,3781.96 12773.2,3780.43C12775.2,3778.9 12776.2,3776.83 12776.2,3774.24L12776.2,3773.53L12765,3773.53C12763,3773.53 12761.4,3773.91 12760.1,3774.66C12758.9,3775.41 12758.3,3776.52 12758.3,3777.99C12758.3,3779.4 12758.9,3780.55 12760.2,3781.42C12761.5,3782.29 12763.3,3782.73 12765.6,3782.73ZM13160.4,3782.31C13163.7,3782.31 13166.5,3781.35 13168.8,3779.44C13171,3777.53 13172.1,3774.8 13172.1,3771.26L13172.1,3770.56C13172.1,3766.97 13171,3764.23 13168.8,3762.34C13166.6,3760.46 13163.8,3759.51 13160.4,3759.51C13157,3759.51 13154.2,3760.46 13151.9,3762.34C13149.6,3764.23 13148.5,3766.97 13148.5,3770.56L13148.5,3771.26C13148.5,3774.8 13149.6,3777.53 13151.9,3779.44C13154.2,3781.35 13157,3782.31 13160.4,3782.31ZM12540.7,3782.16C12544.1,3782.16 12546.9,3781.21 12549.1,3779.3C12551.3,3777.39 12552.4,3774.71 12552.4,3771.26L12552.4,3770.56C12552.4,3767.11 12551.3,3764.43 12549.1,3762.52C12546.9,3760.61 12544.1,3759.65 12540.7,3759.65C12537.3,3759.65 12534.4,3760.61 12532.3,3762.52C12530.1,3764.43 12529,3767.11 12529,3770.56L12529,3771.26C12529,3774.71 12530.1,3777.39 12532.3,3779.3C12534.4,3781.21 12537.3,3782.16 12540.7,3782.16ZM13005.9,3782.16C13009.4,3782.16 13012.2,3781.21 13014.4,3779.3C13016.5,3777.39 13017.6,3774.71 13017.6,3771.26L13017.6,3770.56C13017.6,3767.11 13016.5,3764.43 13014.4,3762.52C13012.2,3760.61 13009.4,3759.65 13005.9,3759.65C13002.5,3759.65 12999.7,3760.61 12997.5,3762.52C12995.3,3764.43 12994.3,3767.11 12994.3,3770.56L12994.3,3771.26C12994.3,3774.71 12995.3,3777.39 12997.5,3779.3C12999.7,3781.21 13002.5,3782.16 13005.9,3782.16ZM12465.4,3780.68L12476.3,3780.68C12478.9,3780.68 12481,3780.12 12482.5,3779.01C12484.1,3777.91 12484.9,3776.34 12484.9,3774.31L12484.9,3773.67C12484.9,3771.64 12484.1,3770.07 12482.6,3768.96C12481,3767.85 12479,3767.3 12476.3,3767.3L12465.4,3767.3L12465.4,3780.68ZM13103.2,3767.09L13123.9,3767.09C13123.7,3764.77 13122.7,3762.93 13120.8,3761.57C13119,3760.2 13116.7,3759.51 13113.8,3759.51C13110.8,3759.51 13108.4,3760.2 13106.6,3761.57C13104.8,3762.93 13103.7,3764.77 13103.2,3767.09ZM12465.4,3759.58L12476.2,3759.58C12478.7,3759.58 12480.7,3759.04 12482.3,3757.95C12483.8,3756.87 12484.6,3755.36 12484.6,3753.43L12484.6,3752.72C12484.6,3750.78 12483.8,3749.27 12482.3,3748.19C12480.7,3747.1 12478.7,3746.56 12476.2,3746.56L12465.4,3746.56L12465.4,3759.58ZM12801.3,3748.97C12799.6,3748.97 12798.2,3748.48 12797,3747.51C12795.7,3746.55 12795.1,3745.26 12795.1,3743.66C12795.1,3742.05 12795.7,3740.77 12797,3739.8C12798.2,3738.83 12799.6,3738.35 12801.3,3738.35C12803.1,3738.35 12804.6,3738.83 12805.8,3739.8C12807,3740.77 12807.5,3742.05 12807.5,3743.66C12807.5,3745.26 12807,3746.55 12805.8,3747.51C12804.6,3748.48 12803.1,3748.97 12801.3,3748.97Z" style="fill:rgb(54,35,93);fill-rule:nonzero;"/>
            </g>
        </g>
    </g>
</svg>
