<?xml version="1.0" encoding="UTF-8" standalone="no"?>
<!DOCTYPE svg PUBLIC "-//W3C//DTD SVG 1.1//EN" "http://www.w3.org/Graphics/SVG/1.1/DTD/svg11.dtd">
<svg width="100%" height="100%" viewBox="0 0 870 257" version="1.1" xmlns="http://www.w3.org/2000/svg" xmlns:xlink="http://www.w3.org/1999/xlink" xml:space="preserve" xmlns:serif="http://www.serif.com/" style="fill-rule:evenodd;clip-rule:evenodd;stroke-linejoin:round;stroke-miterlimit:2;">
    <g transform="matrix(0.669718,0,0,0.614029,171.534,217.015)">
        <g id="Koinos-Logo-no-mark-dark" serif:id="Koinos Logo no mark dark">
            <g>
                <g transform="matrix(357.351,0,0,357.351,-219.771,0)">
                    <path d="M0.073,-0L0.073,-0.7L0.181,-0.7L0.181,-0.409L0.197,-0.409L0.458,-0.7L0.599,-0.7L0.283,-0.355L0.61,-0L0.465,-0L0.197,-0.297L0.181,-0.297L0.181,-0L0.073,-0Z" style="fill:rgb(245,245,245);fill-rule:nonzero;"/>
                </g>
                <g transform="matrix(357.351,0,0,357.351,0,0)">
                    <path d="M0.336,0.014C0.25,0.014 0.182,-0.01 0.131,-0.059C0.08,-0.107 0.055,-0.177 0.055,-0.268L0.055,-0.432C0.055,-0.523 0.08,-0.593 0.131,-0.642C0.182,-0.69 0.25,-0.714 0.336,-0.714C0.422,-0.714 0.491,-0.69 0.542,-0.642C0.592,-0.593 0.618,-0.523 0.618,-0.432L0.618,-0.268C0.618,-0.177 0.592,-0.107 0.542,-0.059C0.491,-0.01 0.422,0.014 0.336,0.014ZM0.336,-0.083C0.391,-0.083 0.434,-0.099 0.464,-0.132C0.494,-0.164 0.509,-0.208 0.509,-0.264L0.509,-0.436C0.509,-0.492 0.494,-0.536 0.464,-0.569C0.434,-0.601 0.391,-0.617 0.336,-0.617C0.282,-0.617 0.24,-0.601 0.209,-0.569C0.178,-0.536 0.163,-0.492 0.163,-0.436L0.163,-0.264C0.163,-0.208 0.178,-0.164 0.209,-0.132C0.24,-0.099 0.282,-0.083 0.336,-0.083Z" style="fill:rgb(245,245,245);fill-rule:nonzero;"/>
                </g>
                <g transform="matrix(357.351,0,0,357.351,240.497,0)">
                    <rect x="0.073" y="-0.7" width="0.108" height="0.7" style="fill:rgb(245,245,245);fill-rule:nonzero;"/>
                </g>
                <g transform="matrix(357.351,0,0,357.351,331.264,0)">
                    <path d="M0.073,-0L0.073,-0.7L0.281,-0.7L0.471,-0.072L0.487,-0.072L0.487,-0.7L0.594,-0.7L0.594,-0L0.386,-0L0.196,-0.629L0.18,-0.629L0.18,-0L0.073,-0Z" style="fill:rgb(245,245,245);fill-rule:nonzero;"/>
                </g>
                <g transform="matrix(357.351,0,0,357.351,569.617,0)">
                    <path d="M0.336,0.014C0.25,0.014 0.182,-0.01 0.131,-0.059C0.08,-0.107 0.055,-0.177 0.055,-0.268L0.055,-0.432C0.055,-0.523 0.08,-0.593 0.131,-0.642C0.182,-0.69 0.25,-0.714 0.336,-0.714C0.422,-0.714 0.491,-0.69 0.542,-0.642C0.592,-0.593 0.618,-0.523 0.618,-0.432L0.618,-0.268C0.618,-0.177 0.592,-0.107 0.542,-0.059C0.491,-0.01 0.422,0.014 0.336,0.014ZM0.336,-0.083C0.391,-0.083 0.434,-0.099 0.464,-0.132C0.494,-0.164 0.509,-0.208 0.509,-0.264L0.509,-0.436C0.509,-0.492 0.494,-0.536 0.464,-0.569C0.434,-0.601 0.391,-0.617 0.336,-0.617C0.282,-0.617 0.24,-0.601 0.209,-0.569C0.178,-0.536 0.163,-0.492 0.163,-0.436L0.163,-0.264C0.163,-0.208 0.178,-0.164 0.209,-0.132C0.24,-0.099 0.282,-0.083 0.336,-0.083Z" style="fill:rgb(245,245,245);fill-rule:nonzero;"/>
                </g>
                <g transform="matrix(357.351,0,0,357.351,810.115,0)">
                    <path d="M0.311,0.014C0.258,0.014 0.212,0.005 0.171,-0.014C0.13,-0.033 0.098,-0.06 0.076,-0.097C0.053,-0.133 0.041,-0.177 0.041,-0.229L0.041,-0.254L0.148,-0.254L0.148,-0.229C0.148,-0.18 0.163,-0.143 0.193,-0.118C0.222,-0.093 0.262,-0.081 0.311,-0.081C0.361,-0.081 0.399,-0.092 0.424,-0.113C0.449,-0.134 0.462,-0.161 0.462,-0.194C0.462,-0.216 0.456,-0.234 0.444,-0.248C0.432,-0.262 0.415,-0.273 0.393,-0.282C0.371,-0.29 0.345,-0.298 0.314,-0.305L0.277,-0.314C0.232,-0.325 0.194,-0.338 0.161,-0.354C0.128,-0.369 0.102,-0.39 0.084,-0.416C0.066,-0.442 0.057,-0.475 0.057,-0.516C0.057,-0.557 0.067,-0.593 0.088,-0.622C0.108,-0.651 0.136,-0.674 0.172,-0.69C0.208,-0.706 0.25,-0.714 0.299,-0.714C0.348,-0.714 0.391,-0.706 0.43,-0.689C0.468,-0.672 0.498,-0.648 0.52,-0.615C0.542,-0.582 0.553,-0.541 0.553,-0.492L0.553,-0.456L0.446,-0.456L0.446,-0.492C0.446,-0.522 0.44,-0.546 0.428,-0.565C0.415,-0.584 0.398,-0.597 0.376,-0.606C0.354,-0.615 0.328,-0.619 0.299,-0.619C0.256,-0.619 0.223,-0.61 0.2,-0.593C0.176,-0.575 0.164,-0.55 0.164,-0.519C0.164,-0.498 0.169,-0.48 0.18,-0.467C0.19,-0.453 0.205,-0.442 0.225,-0.433C0.245,-0.424 0.27,-0.417 0.3,-0.41L0.337,-0.401C0.382,-0.391 0.422,-0.378 0.457,-0.363C0.492,-0.347 0.519,-0.326 0.539,-0.299C0.559,-0.272 0.569,-0.238 0.569,-0.196C0.569,-0.154 0.559,-0.117 0.538,-0.086C0.517,-0.055 0.487,-0.03 0.448,-0.013C0.409,0.005 0.364,0.014 0.311,0.014Z" style="fill:rgb(245,245,245);fill-rule:nonzero;"/>
                </g>
            </g>
        </g>
    </g>
</svg>
