<?xml version="1.0" encoding="UTF-8" standalone="no"?>
<!DOCTYPE svg PUBLIC "-//W3C//DTD SVG 1.1//EN" "http://www.w3.org/Graphics/SVG/1.1/DTD/svg11.dtd">
<svg width="100%" height="100%" viewBox="0 0 1419 531" version="1.1" xmlns="http://www.w3.org/2000/svg" xmlns:xlink="http://www.w3.org/1999/xlink" xml:space="preserve" xmlns:serif="http://www.serif.com/" style="fill-rule:evenodd;clip-rule:evenodd;stroke-linejoin:round;stroke-miterlimit:2;">
    <g transform="matrix(1,0,0,1,-12074,-3335)">
        <g id="koinos-logo-with-tagline-dark" transform="matrix(0.687441,0,0,0.547925,12074.9,2503.76)">
            <rect x="0" y="1518.87" width="2062.72" height="967.285" style="fill:none;"/>
            <g transform="matrix(1.18242,0,0,1.42394,-64.2786,-722.891)">
                <g id="logo" transform="matrix(1.23025,0,0,1.2817,-12886,-2732.81)">
                    <path d="M11551.8,3518.38C11501.6,3518.38 11467.8,3540.72 11467.8,3577.24C11467.8,3613.77 11496.4,3628.56 11542,3637.62L11557,3640.64C11589.1,3646.98 11609,3654.53 11609,3675.96C11609,3697.09 11589.1,3711.88 11553.5,3711.88C11517.6,3711.88 11493.9,3696.49 11493.9,3663.88L11493.9,3661.17L11459.8,3661.17L11459.8,3663.88C11459.8,3712.49 11498.8,3738.14 11553.5,3738.14C11607.9,3738.14 11642.8,3712.79 11642.8,3675.36C11642.8,3637.62 11610.7,3623.13 11565,3614.07L11550.1,3611.06C11518.3,3604.72 11502,3597.17 11502,3576.64C11502,3556.11 11520.8,3544.64 11551.8,3544.64C11583.5,3544.64 11605.8,3556.11 11605.8,3584.79L11605.8,3592.94L11640,3592.94L11640,3584.79C11640,3540.72 11602,3518.38 11551.8,3518.38ZM10759.5,3603.81L10759.5,3652.71C10759.5,3708.26 10797.5,3738.14 10856.7,3738.14C10916,3738.14 10954,3708.26 10954,3652.71L10954,3603.81C10954,3548.26 10916,3518.38 10856.7,3518.38C10797.5,3518.38 10759.5,3548.26 10759.5,3603.81ZM11252,3603.81L11252,3652.71C11252,3708.26 11290,3738.14 11349.3,3738.14C11408.5,3738.14 11446.5,3708.26 11446.5,3652.71L11446.5,3603.81C11446.5,3548.26 11408.5,3518.38 11349.3,3518.38C11290,3518.38 11252,3548.26 11252,3603.81ZM10767.6,3522.61L10718.5,3522.61L10604.5,3618.6L10601,3618.6L10601,3522.61L10566.5,3522.61L10566.5,3733.92L10601,3733.92L10601,3658.45L10636.5,3629.47L10720.9,3733.92L10763.8,3733.92L10660.9,3609.55L10767.6,3522.61ZM10979.1,3522.61L10979.1,3733.92L11013.6,3733.92L11013.6,3522.61L10979.1,3522.61ZM11047.1,3522.61L11047.1,3733.92L11081.6,3733.92L11081.6,3553.7L11085.1,3553.7L11168,3733.92L11226.9,3733.92L11226.9,3522.61L11192.4,3522.61L11192.4,3702.83L11188.9,3702.83L11106,3522.61L11047.1,3522.61ZM10794,3602.6C10794,3566.98 10817.3,3544.94 10856.7,3544.94C10896.1,3544.94 10919.5,3566.98 10919.5,3602.6L10919.5,3653.92C10919.5,3689.54 10896.1,3711.58 10856.7,3711.58C10817.3,3711.58 10794,3689.54 10794,3653.92L10794,3602.6ZM11286.5,3602.6C11286.5,3566.98 11309.9,3544.94 11349.3,3544.94C11388.7,3544.94 11412,3566.98 11412,3602.6L11412,3653.92C11412,3689.54 11388.7,3711.58 11349.3,3711.58C11309.9,3711.58 11286.5,3689.54 11286.5,3653.92L11286.5,3602.6Z" style="fill:rgb(245,245,245);fill-rule:nonzero;"/>
                </g>
                <g id="mark" transform="matrix(0.598462,0,0,0.623488,1295.05,-397.297)">
                    <path d="M345.135,3373.44C345.135,3373.44 540,3260.93 540,3260.93L734.865,3373.44C735.406,3373.75 735.74,3374.33 735.74,3374.95L735.74,3598.95C735.74,3599.58 735.406,3600.15 734.865,3600.47L540.875,3712.47L540.85,3712.48L540.824,3712.49L540.798,3712.51L540.772,3712.52L540.746,3712.53L540.72,3712.55L540.693,3712.56L540.667,3712.57L540.64,3712.58L540.613,3712.59L540.586,3712.6L540.559,3712.61L540.532,3712.62L540.504,3712.63L540.477,3712.64L540.449,3712.64L540.422,3712.65L540.394,3712.66L540.366,3712.66L540.338,3712.67L540.31,3712.67L540.282,3712.68L540.254,3712.68L540.226,3712.69L540.198,3712.69L540.165,3712.69L540.138,3712.7L540.108,3712.7L540.071,3712.7L540.042,3712.7L540.014,3712.7L539.986,3712.7L539.958,3712.7L539.925,3712.7L539.895,3712.7L539.858,3712.7L539.83,3712.69L539.802,3712.69L539.774,3712.69L539.746,3712.68L539.718,3712.68L539.69,3712.67L539.662,3712.67L539.634,3712.66L539.606,3712.66L539.578,3712.65L539.551,3712.64L539.523,3712.64L539.496,3712.63L539.468,3712.62L539.441,3712.61L539.414,3712.6L539.387,3712.59L539.36,3712.58L539.333,3712.57L539.307,3712.56L539.28,3712.55L539.254,3712.53L539.228,3712.52L539.202,3712.51L539.176,3712.49L539.15,3712.48L539.125,3712.47C539.125,3712.47 345.135,3600.47 345.135,3600.47C344.594,3600.15 344.26,3599.58 344.26,3598.95L344.26,3374.95C344.26,3374.33 344.594,3373.75 345.135,3373.44ZM347.76,3597.94L538.25,3707.92L538.25,3583.96L455.987,3536.47C455.445,3536.15 455.112,3535.58 455.112,3534.95L455.112,3439.96L347.76,3377.98L347.76,3597.94ZM624.888,3439.96L624.888,3535.96L541.75,3583.96L541.75,3707.92L732.24,3597.94L732.24,3377.98L624.888,3439.96ZM458.612,3533.94L538.25,3579.92L538.25,3487.96L458.612,3441.98L458.612,3533.94ZM621.388,3442.63L541.75,3488.61L541.75,3579.92L621.388,3533.94L621.388,3442.63ZM460.362,3438.95L540,3484.93L619.638,3438.95L540,3392.97L460.362,3438.95ZM540,3388.93L623.138,3436.93L730.49,3374.95L540,3264.97L349.51,3374.95L456.862,3436.93L540,3388.93Z" style="fill:none;stroke:rgb(245,245,245);stroke-width:16.45px;"/>
                </g>
                <g id="blockchain-evolved" serif:id="blockchain evolved" transform="matrix(0.974584,0,0,1.01534,-10150.7,-1728.41)">
                    <path d="M11516.1,3828.04L11516.1,3823.51L11519.1,3823.51C11521.4,3823.51 11522.6,3822.49 11522.6,3820.46L11522.6,3818.2L11521.3,3818.2C11519.3,3818.2 11517.6,3817.67 11516.2,3816.61C11514.9,3815.54 11514.2,3814.19 11514.2,3812.54C11514.2,3810.79 11514.9,3809.36 11516.2,3808.25C11517.6,3807.14 11519.3,3806.59 11521.3,3806.59C11523.4,3806.59 11525.1,3807.16 11526.4,3808.29C11527.7,3809.42 11528.3,3810.91 11528.3,3812.75L11528.3,3820.53C11528.3,3825.54 11525.5,3828.04 11519.7,3828.04L11516.1,3828.04ZM11665.9,3818.98C11658.8,3818.98 11653.2,3817.27 11648.9,3813.85C11644.7,3810.42 11642.6,3805.51 11642.6,3799.09L11642.6,3787.34C11642.6,3780.92 11644.7,3776 11648.9,3772.58C11653.2,3769.16 11658.8,3767.45 11665.9,3767.45C11673,3767.45 11678.7,3769.16 11682.9,3772.58C11687.1,3776 11689.2,3780.92 11689.2,3787.34L11689.2,3799.09C11689.2,3805.51 11687.1,3810.42 11682.9,3813.85C11678.7,3817.27 11673,3818.98 11665.9,3818.98ZM11163.5,3818.98C11156.5,3818.98 11150.8,3817.27 11146.6,3813.85C11142.4,3810.42 11140.2,3805.51 11140.2,3799.09L11140.2,3787.34C11140.2,3780.92 11142.4,3776 11146.6,3772.58C11150.8,3769.16 11156.5,3767.45 11163.5,3767.45C11170.7,3767.45 11176.3,3769.16 11180.5,3772.58C11184.7,3776 11186.8,3780.92 11186.8,3787.34L11186.8,3799.09C11186.8,3805.51 11184.7,3810.42 11180.5,3813.85C11176.3,3817.27 11170.7,3818.98 11163.5,3818.98ZM11216.2,3818.98C11209.2,3818.98 11203.6,3817.27 11199.5,3813.85C11195.4,3810.42 11193.3,3805.51 11193.3,3799.09L11193.3,3787.34C11193.3,3780.92 11195.4,3776 11199.5,3772.58C11203.6,3769.16 11209.2,3767.45 11216.2,3767.45C11223.1,3767.45 11228.5,3769.1 11232.3,3772.4C11236.1,3775.7 11238,3780.23 11238,3785.99L11238,3786.42L11228.4,3786.42L11228.4,3785.78C11228.4,3782.66 11227.4,3780.1 11225.4,3778.1C11223.4,3776.09 11220.3,3775.09 11216.2,3775.09C11212.1,3775.09 11209,3776.16 11206.7,3778.31C11204.3,3780.46 11203.2,3783.42 11203.2,3787.2L11203.2,3799.23C11203.2,3802.96 11204.3,3805.91 11206.7,3808.08C11209,3810.25 11212.1,3811.33 11216.2,3811.33C11220.3,3811.33 11223.4,3810.33 11225.4,3808.32C11227.4,3806.32 11228.4,3803.76 11228.4,3800.64L11228.4,3799.44L11238,3799.44L11238,3800.43C11238,3806.19 11236.1,3810.72 11232.3,3814.02C11228.5,3817.33 11223.1,3818.98 11216.2,3818.98ZM11883.2,3818.98C11881.2,3818.98 11879.4,3818.39 11878,3817.21C11876.7,3816.03 11876,3814.52 11876,3812.68C11876,3810.88 11876.7,3809.4 11878,3808.22C11879.4,3807.04 11881.2,3806.45 11883.2,3806.45C11885.3,3806.45 11887,3807.04 11888.4,3808.22C11889.8,3809.4 11890.4,3810.91 11890.4,3812.75C11890.4,3814.59 11889.8,3816.09 11888.4,3817.24C11887,3818.4 11885.3,3818.98 11883.2,3818.98ZM11313.4,3818.98C11306.4,3818.98 11300.8,3817.27 11296.7,3813.85C11292.5,3810.42 11290.5,3805.51 11290.5,3799.09L11290.5,3787.34C11290.5,3780.92 11292.5,3776 11296.7,3772.58C11300.8,3769.16 11306.4,3767.45 11313.4,3767.45C11320.3,3767.45 11325.7,3769.1 11329.5,3772.4C11333.3,3775.7 11335.2,3780.23 11335.2,3785.99L11335.2,3786.42L11325.5,3786.42L11325.5,3785.78C11325.5,3782.66 11324.5,3780.1 11322.6,3778.1C11320.6,3776.09 11317.5,3775.09 11313.4,3775.09C11309.3,3775.09 11306.2,3776.16 11303.8,3778.31C11301.5,3780.46 11300.4,3783.42 11300.4,3787.2L11300.4,3799.23C11300.4,3802.96 11301.5,3805.91 11303.8,3808.08C11306.2,3810.25 11309.3,3811.33 11313.4,3811.33C11317.5,3811.33 11320.6,3810.33 11322.6,3808.32C11324.5,3806.32 11325.5,3803.76 11325.5,3800.64L11325.5,3799.44L11335.2,3799.44L11335.2,3800.43C11335.2,3806.19 11333.3,3810.72 11329.5,3814.02C11325.7,3817.33 11320.3,3818.98 11313.4,3818.98ZM11462.8,3817.99L11462.8,3768.44L11481.6,3768.44L11495.1,3812.25L11496.4,3812.25L11496.4,3768.44L11506.1,3768.44L11506.1,3817.99L11487.4,3817.99L11473.9,3774.17L11472.5,3774.17L11472.5,3817.99L11462.8,3817.99ZM11245.2,3817.99L11245.2,3768.44L11255.1,3768.44L11255.1,3788.61L11256.5,3788.61L11276.4,3768.44L11289.1,3768.44L11264.2,3792.86L11289.9,3817.99L11276.9,3817.99L11256.5,3797.39L11255.1,3797.39L11255.1,3817.99L11245.2,3817.99ZM11389.9,3817.99L11405.6,3768.44L11422.7,3768.44L11438.4,3817.99L11428.3,3817.99L11424.8,3806.66L11403.5,3806.66L11400.1,3817.99L11389.9,3817.99ZM11100.9,3817.99L11100.9,3768.44L11110.8,3768.44L11110.8,3810.27L11137.6,3810.27L11137.6,3817.99L11100.9,3817.99ZM11697,3817.99L11697,3768.44L11706.9,3768.44L11706.9,3810.27L11733.7,3810.27L11733.7,3817.99L11697,3817.99ZM11553.1,3817.99L11553.1,3768.44L11589.6,3768.44L11589.6,3776.15L11563,3776.15L11563,3789.18L11587.3,3789.18L11587.3,3796.89L11563,3796.89L11563,3810.27L11590,3810.27L11590,3817.99L11553.1,3817.99ZM11782.7,3817.99L11782.7,3768.44L11819.2,3768.44L11819.2,3776.15L11792.6,3776.15L11792.6,3789.18L11816.9,3789.18L11816.9,3796.89L11792.6,3796.89L11792.6,3810.27L11819.6,3810.27L11819.6,3817.99L11782.7,3817.99ZM11046.9,3817.99L11046.9,3810.48L11054.6,3810.48L11054.6,3775.94L11046.9,3775.94L11046.9,3768.44L11076.2,3768.44C11079.6,3768.44 11082.6,3768.94 11085.2,3769.96C11087.8,3770.97 11089.8,3772.41 11091.2,3774.28C11092.7,3776.14 11093.4,3778.37 11093.4,3780.97L11093.4,3781.6C11093.4,3783.87 11092.9,3785.73 11091.9,3787.2C11090.9,3788.66 11089.8,3789.79 11088.4,3790.59C11087.1,3791.39 11085.7,3791.96 11084.5,3792.29L11084.5,3793.49C11085.7,3793.78 11087.1,3794.31 11088.5,3795.09C11090,3795.87 11091.2,3797 11092.2,3798.49C11093.2,3799.97 11093.7,3801.89 11093.7,3804.25L11093.7,3804.96C11093.7,3807.65 11093,3809.98 11091.5,3811.93C11090,3813.89 11087.9,3815.39 11085.4,3816.43C11082.8,3817.47 11079.8,3817.99 11076.4,3817.99L11046.9,3817.99ZM11342.4,3817.99L11342.4,3768.44L11352.3,3768.44L11352.3,3789.25L11374.8,3789.25L11374.8,3768.44L11384.7,3768.44L11384.7,3817.99L11374.8,3817.99L11374.8,3797.03L11352.3,3797.03L11352.3,3817.99L11342.4,3817.99ZM11607.7,3817.99L11592.5,3768.44L11602.6,3768.44L11615.6,3812.54L11616.7,3812.54L11629.7,3768.44L11639.8,3768.44L11624.5,3817.99L11607.7,3817.99ZM11824.3,3817.99L11824.3,3810.48L11831.9,3810.48L11831.9,3775.94L11824.3,3775.94L11824.3,3768.44L11847.6,3768.44C11855.2,3768.44 11861,3770.11 11865.1,3773.46C11869.1,3776.81 11871.1,3781.84 11871.1,3788.54L11871.1,3797.88C11871.1,3804.58 11869.1,3809.61 11865.1,3812.96C11861,3816.31 11855.2,3817.99 11847.6,3817.99L11824.3,3817.99ZM11443.6,3817.99L11443.6,3768.44L11453.5,3768.44L11453.5,3817.99L11443.6,3817.99ZM11745.5,3817.99L11730.3,3768.44L11740.4,3768.44L11753.3,3812.54L11754.5,3812.54L11767.5,3768.44L11777.6,3768.44L11762.3,3817.99L11745.5,3817.99ZM11163.5,3811.33C11167.8,3811.33 11171.1,3810.26 11173.5,3808.11C11175.8,3805.97 11177,3803.05 11177,3799.37L11177,3787.05C11177,3783.37 11175.8,3780.46 11173.5,3778.31C11171.1,3776.16 11167.8,3775.09 11163.5,3775.09C11159.3,3775.09 11156.1,3776.16 11153.7,3778.31C11151.3,3780.46 11150.1,3783.37 11150.1,3787.05L11150.1,3799.37C11150.1,3803.05 11151.3,3805.97 11153.7,3808.11C11156.1,3810.26 11159.3,3811.33 11163.5,3811.33ZM11665.9,3811.33C11670.1,3811.33 11673.4,3810.26 11675.8,3808.11C11678.2,3805.97 11679.4,3803.05 11679.4,3799.37L11679.4,3787.05C11679.4,3783.37 11678.2,3780.46 11675.8,3778.31C11673.4,3776.16 11670.1,3775.09 11665.9,3775.09C11661.7,3775.09 11658.4,3776.16 11656,3778.31C11653.7,3780.46 11652.5,3783.37 11652.5,3787.05L11652.5,3799.37C11652.5,3803.05 11653.7,3805.97 11656,3808.11C11658.4,3810.26 11661.7,3811.33 11665.9,3811.33ZM11841.8,3810.27L11847.6,3810.27C11852.3,3810.27 11855.7,3809.23 11857.9,3807.16C11860.2,3805.08 11861.3,3802.08 11861.3,3798.17L11861.3,3788.33C11861.3,3784.32 11860.2,3781.28 11857.9,3779.23C11855.7,3777.18 11852.3,3776.15 11847.6,3776.15L11841.8,3776.15L11841.8,3810.27ZM11064.4,3810.27L11075.3,3810.27C11077.9,3810.27 11080,3809.72 11081.5,3808.61C11083.1,3807.5 11083.8,3805.93 11083.8,3803.9L11083.8,3803.26C11083.8,3801.23 11083.1,3799.66 11081.5,3798.56C11080,3797.45 11077.9,3796.89 11075.3,3796.89L11064.4,3796.89L11064.4,3810.27ZM11405.8,3798.87L11422.6,3798.87L11414.9,3773.75L11413.5,3773.75L11405.8,3798.87ZM11064.4,3789.18L11075.2,3789.18C11077.7,3789.18 11079.7,3788.63 11081.3,3787.55C11082.8,3786.46 11083.6,3784.95 11083.6,3783.02L11083.6,3782.31C11083.6,3780.38 11082.8,3778.87 11081.3,3777.78C11079.7,3776.7 11077.7,3776.15 11075.2,3776.15L11064.4,3776.15L11064.4,3789.18Z" style="fill:rgb(245,245,245);fill-rule:nonzero;"/>
                </g>
            </g>
        </g>
    </g>
</svg>
