<?xml version="1.0" encoding="UTF-8" standalone="no"?>
<!DOCTYPE svg PUBLIC "-//W3C//DTD SVG 1.1//EN" "http://www.w3.org/Graphics/SVG/1.1/DTD/svg11.dtd">
<svg width="100%" height="100%" viewBox="0 0 1419 531" version="1.1" xmlns="http://www.w3.org/2000/svg" xmlns:xlink="http://www.w3.org/1999/xlink" xml:space="preserve" xmlns:serif="http://www.serif.com/" style="fill-rule:evenodd;clip-rule:evenodd;stroke-linejoin:round;stroke-miterlimit:2;">
    <g transform="matrix(1,0,0,1,-12074,-4115)">
        <g id="Koinos-logo-dark-spanish" transform="matrix(0.687441,0,0,0.547925,12074.9,3283.76)">
            <rect x="0" y="1518.87" width="2062.72" height="967.285" style="fill:none;"/>
            <g transform="matrix(1.18242,0,0,1.42394,-64.2786,-722.891)">
                <g id="logo" transform="matrix(1.23025,0,0,1.2817,-12886,-2701.39)">
                    <path d="M11551.8,3518.38C11501.6,3518.38 11467.8,3540.72 11467.8,3577.24C11467.8,3613.77 11496.4,3628.56 11542,3637.62L11557,3640.64C11589.1,3646.98 11609,3654.53 11609,3675.96C11609,3697.09 11589.1,3711.88 11553.5,3711.88C11517.6,3711.88 11493.9,3696.49 11493.9,3663.88L11493.9,3661.17L11459.8,3661.17L11459.8,3663.88C11459.8,3712.49 11498.8,3738.14 11553.5,3738.14C11607.9,3738.14 11642.8,3712.79 11642.8,3675.36C11642.8,3637.62 11610.7,3623.13 11565,3614.07L11550.1,3611.06C11518.3,3604.72 11502,3597.17 11502,3576.64C11502,3556.11 11520.8,3544.64 11551.8,3544.64C11583.5,3544.64 11605.8,3556.11 11605.8,3584.79L11605.8,3592.94L11640,3592.94L11640,3584.79C11640,3540.72 11602,3518.38 11551.8,3518.38ZM10759.5,3603.81L10759.5,3652.71C10759.5,3708.26 10797.5,3738.14 10856.7,3738.14C10916,3738.14 10954,3708.26 10954,3652.71L10954,3603.81C10954,3548.26 10916,3518.38 10856.7,3518.38C10797.5,3518.38 10759.5,3548.26 10759.5,3603.81ZM11252,3603.81L11252,3652.71C11252,3708.26 11290,3738.14 11349.3,3738.14C11408.5,3738.14 11446.5,3708.26 11446.5,3652.71L11446.5,3603.81C11446.5,3548.26 11408.5,3518.38 11349.3,3518.38C11290,3518.38 11252,3548.26 11252,3603.81ZM10767.6,3522.61L10718.5,3522.61L10604.5,3618.6L10601,3618.6L10601,3522.61L10566.5,3522.61L10566.5,3733.92L10601,3733.92L10601,3658.45L10636.5,3629.47L10720.9,3733.92L10763.8,3733.92L10660.9,3609.55L10767.6,3522.61ZM10979.1,3522.61L10979.1,3733.92L11013.6,3733.92L11013.6,3522.61L10979.1,3522.61ZM11047.1,3522.61L11047.1,3733.92L11081.6,3733.92L11081.6,3553.7L11085.1,3553.7L11168,3733.92L11226.9,3733.92L11226.9,3522.61L11192.4,3522.61L11192.4,3702.83L11188.9,3702.83L11106,3522.61L11047.1,3522.61ZM10794,3602.6C10794,3566.98 10817.3,3544.94 10856.7,3544.94C10896.1,3544.94 10919.5,3566.98 10919.5,3602.6L10919.5,3653.92C10919.5,3689.54 10896.1,3711.58 10856.7,3711.58C10817.3,3711.58 10794,3689.54 10794,3653.92L10794,3602.6ZM11286.5,3602.6C11286.5,3566.98 11309.9,3544.94 11349.3,3544.94C11388.7,3544.94 11412,3566.98 11412,3602.6L11412,3653.92C11412,3689.54 11388.7,3711.58 11349.3,3711.58C11309.9,3711.58 11286.5,3689.54 11286.5,3653.92L11286.5,3602.6Z" style="fill:rgb(54,35,93);fill-rule:nonzero;"/>
                </g>
                <g id="mark" transform="matrix(0.598462,0,0,0.623488,1295.05,-397.297)">
                    <path d="M345.135,3373.44C345.135,3373.44 540,3260.93 540,3260.93L734.865,3373.44C735.406,3373.75 735.74,3374.33 735.74,3374.95L735.74,3598.95C735.74,3599.58 735.406,3600.15 734.865,3600.47L540.875,3712.47L540.85,3712.48L540.824,3712.49L540.798,3712.51L540.772,3712.52L540.746,3712.53L540.72,3712.55L540.693,3712.56L540.667,3712.57L540.64,3712.58L540.613,3712.59L540.586,3712.6L540.559,3712.61L540.532,3712.62L540.504,3712.63L540.477,3712.64L540.449,3712.64L540.422,3712.65L540.394,3712.66L540.366,3712.66L540.338,3712.67L540.31,3712.67L540.282,3712.68L540.254,3712.68L540.226,3712.69L540.198,3712.69L540.165,3712.69L540.138,3712.7L540.108,3712.7L540.071,3712.7L540.042,3712.7L540.014,3712.7L539.986,3712.7L539.958,3712.7L539.925,3712.7L539.895,3712.7L539.858,3712.7L539.83,3712.69L539.802,3712.69L539.774,3712.69L539.746,3712.68L539.718,3712.68L539.69,3712.67L539.662,3712.67L539.634,3712.66L539.606,3712.66L539.578,3712.65L539.551,3712.64L539.523,3712.64L539.496,3712.63L539.468,3712.62L539.441,3712.61L539.414,3712.6L539.387,3712.59L539.36,3712.58L539.333,3712.57L539.307,3712.56L539.28,3712.55L539.254,3712.53L539.228,3712.52L539.202,3712.51L539.176,3712.49L539.15,3712.48L539.125,3712.47C539.125,3712.47 345.135,3600.47 345.135,3600.47C344.594,3600.15 344.26,3599.58 344.26,3598.95L344.26,3374.95C344.26,3374.33 344.594,3373.75 345.135,3373.44ZM347.76,3597.94L538.25,3707.92L538.25,3583.96L455.987,3536.47C455.445,3536.15 455.112,3535.58 455.112,3534.95L455.112,3439.96L347.76,3377.98L347.76,3597.94ZM624.888,3439.96L624.888,3535.96L541.75,3583.96L541.75,3707.92L732.24,3597.94L732.24,3377.98L624.888,3439.96ZM458.612,3533.94L538.25,3579.92L538.25,3487.96L458.612,3441.98L458.612,3533.94ZM621.388,3442.63L541.75,3488.61L541.75,3579.92L621.388,3533.94L621.388,3442.63ZM460.362,3438.95L540,3484.93L619.638,3438.95L540,3392.97L460.362,3438.95ZM540,3388.93L623.138,3436.93L730.49,3374.95L540,3264.97L349.51,3374.95L456.862,3436.93L540,3388.93Z" style="fill:none;stroke:rgb(54,35,93);stroke-width:16.45px;"/>
                </g>
            </g>
            <g transform="matrix(1.45467,0,0,1.82507,-17565,-5993.08)">
                <path d="M13180.8,4597.99C13178.8,4597.99 13177,4597.4 13175.6,4596.22C13174.2,4595.04 13173.5,4593.53 13173.5,4591.69C13173.5,4589.89 13174.2,4588.41 13175.6,4587.23C13177,4586.05 13178.8,4585.46 13180.8,4585.46C13182.9,4585.46 13184.6,4586.05 13186,4587.23C13187.3,4588.41 13188,4589.92 13188,4591.76C13188,4593.6 13187.3,4595.1 13186,4596.25C13184.6,4597.41 13182.9,4597.99 13180.8,4597.99ZM12665,4597.99C12661,4597.99 12657.4,4597.27 12654.2,4595.83C12651,4594.39 12648.5,4592.34 12646.6,4589.67C12644.8,4587 12643.9,4583.81 12643.9,4580.08L12643.9,4578.94C12643.9,4575.22 12644.8,4572.01 12646.6,4569.32C12648.5,4566.63 12651,4564.58 12654.2,4563.16C12657.4,4561.74 12661,4561.04 12665,4561.04C12669,4561.04 12672.6,4561.74 12675.8,4563.16C12678.9,4564.58 12681.4,4566.63 12683.3,4569.32C12685.1,4572.01 12686,4575.22 12686,4578.94L12686,4580.08C12686,4583.81 12685.1,4587 12683.3,4589.67C12681.4,4592.34 12678.9,4594.39 12675.8,4595.83C12672.6,4597.27 12669,4597.99 12665,4597.99ZM12599.4,4597.99C12595.4,4597.99 12591.9,4597.28 12588.7,4595.86C12585.6,4594.45 12583.1,4592.39 12581.3,4589.7C12579.4,4587.02 12578.5,4583.78 12578.5,4580.01L12578.5,4579.02C12578.5,4575.24 12579.4,4572.01 12581.3,4569.32C12583.1,4566.63 12585.6,4564.58 12588.7,4563.16C12591.9,4561.74 12595.4,4561.04 12599.4,4561.04C12603.2,4561.04 12606.5,4561.63 12609.3,4562.81C12612,4563.99 12614.3,4565.6 12616,4567.65C12617.6,4569.71 12618.7,4572.01 12619.2,4574.56L12610.2,4576.19C12609.9,4574.72 12609.4,4573.39 12608.6,4572.19C12607.8,4570.98 12606.6,4570.03 12605.1,4569.32C12603.6,4568.61 12601.8,4568.26 12599.6,4568.26C12597.4,4568.26 12595.4,4568.67 12593.6,4569.49C12591.8,4570.32 12590.4,4571.56 12589.4,4573.21C12588.4,4574.86 12587.9,4576.85 12587.9,4579.16L12587.9,4579.86C12587.9,4582.18 12588.4,4584.15 12589.4,4585.78C12590.4,4587.4 12591.8,4588.64 12593.6,4589.49C12595.4,4590.34 12597.4,4590.77 12599.6,4590.77C12602.9,4590.77 12605.5,4590.02 12607.2,4588.54C12608.9,4587.05 12610,4585.13 12610.4,4582.77L12619.5,4584.61C12618.8,4587.06 12617.6,4589.3 12616,4591.33C12614.3,4593.36 12612,4594.98 12609.3,4596.18C12606.5,4597.39 12603.2,4597.99 12599.4,4597.99ZM12851.5,4597.99C12847.5,4597.99 12843.9,4597.27 12840.7,4595.83C12837.5,4594.39 12835,4592.34 12833.2,4589.67C12831.3,4587 12830.4,4583.81 12830.4,4580.08L12830.4,4578.94C12830.4,4575.22 12831.3,4572.01 12833.2,4569.32C12835,4566.63 12837.5,4564.58 12840.7,4563.16C12843.9,4561.74 12847.5,4561.04 12851.5,4561.04C12855.6,4561.04 12859.1,4561.74 12862.3,4563.16C12865.5,4564.58 12868,4566.63 12869.8,4569.32C12871.6,4572.01 12872.5,4575.22 12872.5,4578.94L12872.5,4580.08C12872.5,4583.81 12871.6,4587 12869.8,4589.67C12868,4592.34 12865.5,4594.39 12862.3,4595.83C12859.1,4597.27 12855.6,4597.99 12851.5,4597.99ZM12899.3,4597.99C12895.4,4597.99 12891.9,4597.28 12888.7,4595.86C12885.5,4594.45 12883.1,4592.39 12881.2,4589.7C12879.4,4587.02 12878.5,4583.78 12878.5,4580.01L12878.5,4579.02C12878.5,4575.24 12879.4,4572.01 12881.2,4569.32C12883.1,4566.63 12885.5,4564.58 12888.7,4563.16C12891.9,4561.74 12895.4,4561.04 12899.3,4561.04C12903.2,4561.04 12906.5,4561.63 12909.3,4562.81C12912,4563.99 12914.2,4565.6 12915.9,4567.65C12917.6,4569.71 12918.7,4572.01 12919.2,4574.56L12910.1,4576.19C12909.9,4574.72 12909.4,4573.39 12908.6,4572.19C12907.8,4570.98 12906.6,4570.03 12905.1,4569.32C12903.6,4568.61 12901.8,4568.26 12899.6,4568.26C12897.3,4568.26 12895.3,4568.67 12893.6,4569.49C12891.8,4570.32 12890.4,4571.56 12889.4,4573.21C12888.4,4574.86 12887.9,4576.85 12887.9,4579.16L12887.9,4579.86C12887.9,4582.18 12888.4,4584.15 12889.4,4585.78C12890.4,4587.4 12891.8,4588.64 12893.6,4589.49C12895.3,4590.34 12897.3,4590.77 12899.6,4590.77C12902.9,4590.77 12905.4,4590.02 12907.1,4588.54C12908.9,4587.05 12909.9,4585.13 12910.4,4582.77L12919.4,4584.61C12918.8,4587.06 12917.6,4589.3 12915.9,4591.33C12914.2,4593.36 12912,4594.98 12909.3,4596.18C12906.5,4597.39 12903.2,4597.99 12899.3,4597.99ZM12484,4597.99C12480,4597.99 12476.4,4597.27 12473.2,4595.83C12470,4594.39 12467.5,4592.34 12465.7,4589.67C12463.9,4587 12462.9,4583.81 12462.9,4580.08L12462.9,4578.94C12462.9,4575.22 12463.9,4572.01 12465.7,4569.32C12467.5,4566.63 12470,4564.58 12473.2,4563.16C12476.4,4561.74 12480,4561.04 12484,4561.04C12488.1,4561.04 12491.7,4561.74 12494.8,4563.16C12498,4564.58 12500.5,4566.63 12502.3,4569.32C12504.1,4572.01 12505,4575.22 12505,4578.94L12505,4580.08C12505,4583.81 12504.1,4587 12502.3,4589.67C12500.5,4592.34 12498,4594.39 12494.8,4595.83C12491.7,4597.27 12488.1,4597.99 12484,4597.99ZM12986.9,4597.99C12983,4597.99 12979.5,4597.28 12976.3,4595.86C12973.2,4594.45 12970.7,4592.39 12968.8,4589.7C12967,4587.02 12966.1,4583.78 12966.1,4580.01L12966.1,4579.02C12966.1,4575.24 12967,4572.01 12968.8,4569.32C12970.7,4566.63 12973.2,4564.58 12976.3,4563.16C12979.5,4561.74 12983,4561.04 12986.9,4561.04C12990.8,4561.04 12994.1,4561.63 12996.9,4562.81C12999.6,4563.99 13001.8,4565.6 13003.5,4567.65C13005.2,4569.71 13006.3,4572.01 13006.8,4574.56L12997.7,4576.19C12997.5,4574.72 12997,4573.39 12996.2,4572.19C12995.4,4570.98 12994.2,4570.03 12992.7,4569.32C12991.2,4568.61 12989.4,4568.26 12987.2,4568.26C12985,4568.26 12983,4568.67 12981.2,4569.49C12979.4,4570.32 12978,4571.56 12977,4573.21C12976,4574.86 12975.5,4576.85 12975.5,4579.16L12975.5,4579.86C12975.5,4582.18 12976,4584.15 12977,4585.78C12978,4587.4 12979.4,4588.64 12981.2,4589.49C12983,4590.34 12985,4590.77 12987.2,4590.77C12990.5,4590.77 12993,4590.02 12994.8,4588.54C12996.5,4587.05 12997.5,4585.13 12998,4582.77L13007.1,4584.61C13006.4,4587.06 13005.2,4589.3 13003.5,4591.33C13001.8,4593.36 12999.6,4594.98 12996.9,4596.18C12994.1,4597.39 12990.8,4597.99 12986.9,4597.99ZM13074.9,4597.99C13072.1,4597.99 13069.5,4597.55 13067.2,4596.68C13064.9,4595.8 13063.1,4594.54 13061.8,4592.89C13060.4,4591.24 13059.8,4589.21 13059.8,4586.8C13059.8,4584.44 13060.4,4582.46 13061.8,4580.86C13063.1,4579.25 13064.9,4578.04 13067.3,4577.21C13069.6,4576.39 13072.3,4575.97 13075.3,4575.97L13087,4575.97L13087,4573.85C13087,4572.01 13086.3,4570.51 13085,4569.35C13083.7,4568.2 13081.7,4567.62 13078.9,4567.62C13076.2,4567.62 13074.1,4568.17 13072.7,4569.28C13071.3,4570.39 13070.4,4571.82 13070,4573.57L13061.3,4571.09C13062,4569.25 13063,4567.57 13064.5,4566.06C13065.9,4564.55 13067.8,4563.34 13070.2,4562.42C13072.6,4561.5 13075.6,4561.04 13079.1,4561.04C13084.3,4561.04 13088.5,4562.18 13091.5,4564.47C13094.6,4566.76 13096.1,4570.07 13096.1,4574.41L13096.1,4588.15C13096.1,4589.56 13096.8,4590.27 13098.4,4590.27L13101.8,4590.27L13101.8,4596.99L13095.2,4596.99C13093.2,4596.99 13091.6,4596.57 13090.3,4595.72C13089.1,4594.87 13088.5,4593.72 13088.5,4592.25L13088.5,4592.11L13087.1,4592.11C13086.7,4592.77 13086.2,4593.57 13085.4,4594.52C13084.5,4595.46 13083.3,4596.28 13081.6,4596.96C13080,4597.64 13077.7,4597.99 13074.9,4597.99ZM12547.7,4597.56C12544.6,4597.56 12541.8,4596.96 12539.5,4595.76C12537.1,4594.55 12535.2,4592.85 12533.9,4590.66C12532.6,4588.47 12531.9,4585.91 12531.9,4582.98L12531.9,4562.03L12541.2,4562.03L12541.2,4582.34C12541.2,4585.17 12542.1,4587.27 12543.7,4588.64C12545.3,4590.01 12547.5,4590.69 12550.5,4590.69C12553.8,4590.69 12556.4,4589.75 12558.4,4587.86C12560.3,4585.98 12561.3,4583.26 12561.3,4579.72L12561.3,4562.03L12570.6,4562.03L12570.6,4596.99L12561.4,4596.99L12561.4,4592.11L12560,4592.11C12559.3,4593.39 12558,4594.61 12556.2,4595.79C12554.3,4596.97 12551.5,4597.56 12547.7,4597.56ZM12379.7,4596.99L12379.7,4547.45L12416.2,4547.45L12416.2,4555.16L12389.6,4555.16L12389.6,4568.19L12413.9,4568.19L12413.9,4575.9L12389.6,4575.9L12389.6,4589.28L12416.6,4589.28L12416.6,4596.99L12379.7,4596.99ZM12513,4596.99L12513,4547.45L12522.4,4547.45L12522.4,4596.99L12513,4596.99ZM12813.1,4596.99L12813.1,4547.45L12822.5,4547.45L12822.5,4596.99L12813.1,4596.99ZM12626.6,4596.99L12626.6,4562.03L12636,4562.03L12636,4596.99L12626.6,4596.99ZM12758.7,4596.99L12758.7,4589.49L12766.4,4589.49L12766.4,4554.95L12758.7,4554.95L12758.7,4547.45L12788,4547.45C12791.4,4547.45 12794.5,4547.95 12797,4548.97C12799.6,4549.98 12801.6,4551.42 12803.1,4553.28C12804.5,4555.15 12805.3,4557.38 12805.3,4559.98L12805.3,4560.61C12805.3,4562.88 12804.8,4564.74 12803.8,4566.2C12802.8,4567.67 12801.6,4568.8 12800.3,4569.6C12798.9,4570.4 12797.6,4570.97 12796.3,4571.3L12796.3,4572.5C12797.6,4572.79 12798.9,4573.32 12800.4,4574.1C12801.8,4574.88 12803.1,4576.01 12804.1,4577.49C12805.1,4578.98 12805.6,4580.9 12805.6,4583.26L12805.6,4583.97C12805.6,4586.66 12804.8,4588.98 12803.3,4590.94C12801.8,4592.9 12799.8,4594.4 12797.2,4595.44C12794.6,4596.48 12791.6,4596.99 12788.3,4596.99L12758.7,4596.99ZM13107.5,4596.99L13107.5,4562.03L13116.9,4562.03L13116.9,4596.99L13107.5,4596.99ZM13014.2,4596.99L13014.2,4547.45L13023.6,4547.45L13023.6,4566.63L13025,4566.63C13025.4,4565.83 13026.1,4565.02 13027.1,4564.22C13028.1,4563.42 13029.4,4562.76 13031,4562.24C13032.6,4561.72 13034.6,4561.46 13037,4561.46C13040.2,4561.46 13042.9,4562.06 13045.3,4563.27C13047.7,4564.47 13049.6,4566.16 13050.9,4568.33C13052.2,4570.5 13052.9,4573.07 13052.9,4576.04L13052.9,4596.99L13043.5,4596.99L13043.5,4576.68C13043.5,4573.85 13042.7,4571.74 13041.1,4570.35C13039.5,4568.95 13037.2,4568.26 13034.3,4568.26C13030.9,4568.26 13028.3,4569.21 13026.4,4571.12C13024.5,4573.03 13023.6,4575.76 13023.6,4579.3L13023.6,4596.99L13014.2,4596.99ZM12693.9,4596.99L12693.9,4562.03L12703.2,4562.03L12703.2,4566.91L12704.6,4566.91C12705.3,4565.59 12706.5,4564.34 12708.4,4563.16C12710.3,4561.98 12713.1,4561.39 12716.8,4561.39C12719.9,4561.39 12722.7,4562 12725.1,4563.23C12727.5,4564.46 12729.3,4566.16 12730.7,4568.33C12732,4570.5 12732.7,4573.07 12732.7,4576.04L12732.7,4596.99L12723.3,4596.99L12723.3,4576.68C12723.3,4573.85 12722.5,4571.74 12720.9,4570.35C12719.3,4568.95 12717,4568.26 12714,4568.26C12710.7,4568.26 12708.1,4569.21 12706.2,4571.12C12704.3,4573.03 12703.3,4575.76 12703.3,4579.3L12703.3,4596.99L12693.9,4596.99ZM12926.6,4596.99L12926.6,4547.45L12936,4547.45L12936,4575.26L12937.3,4575.26L12951.9,4562.03L12964.2,4562.03L12944.7,4578.94L12964.9,4596.99L12952.7,4596.99L12937.3,4582.77L12936,4582.77L12936,4596.99L12926.6,4596.99ZM13126.8,4596.99L13126.8,4562.03L13136,4562.03L13136,4566.91L13137.4,4566.91C13138.1,4565.59 13139.4,4564.34 13141.3,4563.16C13143.1,4561.98 13145.9,4561.39 13149.7,4561.39C13152.8,4561.39 13155.5,4562 13157.9,4563.23C13160.3,4564.46 13162.2,4566.16 13163.5,4568.33C13164.9,4570.5 13165.5,4573.07 13165.5,4576.04L13165.5,4596.99L13156.1,4596.99L13156.1,4576.68C13156.1,4573.85 13155.3,4571.74 13153.7,4570.35C13152.1,4568.95 13149.8,4568.26 13146.9,4568.26C13143.6,4568.26 13141,4569.21 13139.1,4571.12C13137.1,4573.03 13136.2,4575.76 13136.2,4579.3L13136.2,4596.99L13126.8,4596.99ZM12432.4,4596.99L12419.1,4562.03L12429.1,4562.03L12439.1,4591.05L12440.5,4591.05L12450.5,4562.03L12460.5,4562.03L12447.2,4596.99L12432.4,4596.99ZM13076.4,4591.33C13079.6,4591.33 13082.1,4590.57 13084,4589.03C13086,4587.5 13087,4585.43 13087,4582.84L13087,4582.13L13075.9,4582.13C13073.9,4582.13 13072.2,4582.51 13071,4583.26C13069.7,4584.02 13069.1,4585.13 13069.1,4586.59C13069.1,4588.01 13069.7,4589.15 13071.1,4590.02C13072.4,4590.9 13074.2,4591.33 13076.4,4591.33ZM12484,4590.77C12487.5,4590.77 12490.3,4589.81 12492.5,4587.9C12494.6,4585.99 12495.7,4583.31 12495.7,4579.86L12495.7,4579.16C12495.7,4575.71 12494.6,4573.03 12492.5,4571.12C12490.3,4569.21 12487.5,4568.26 12484,4568.26C12480.6,4568.26 12477.8,4569.21 12475.6,4571.12C12473.4,4573.03 12472.3,4575.71 12472.3,4579.16L12472.3,4579.86C12472.3,4583.31 12473.4,4585.99 12475.6,4587.9C12477.8,4589.81 12480.6,4590.77 12484,4590.77ZM12851.5,4590.77C12855,4590.77 12857.8,4589.81 12859.9,4587.9C12862.1,4585.99 12863.2,4583.31 12863.2,4579.86L12863.2,4579.16C12863.2,4575.71 12862.1,4573.03 12859.9,4571.12C12857.8,4569.21 12855,4568.26 12851.5,4568.26C12848.1,4568.26 12845.3,4569.21 12843.1,4571.12C12840.9,4573.03 12839.8,4575.71 12839.8,4579.16L12839.8,4579.86C12839.8,4583.31 12840.9,4585.99 12843.1,4587.9C12845.3,4589.81 12848.1,4590.77 12851.5,4590.77ZM12665,4590.77C12668.4,4590.77 12671.2,4589.81 12673.4,4587.9C12675.6,4585.99 12676.7,4583.31 12676.7,4579.86L12676.7,4579.16C12676.7,4575.71 12675.6,4573.03 12673.4,4571.12C12671.2,4569.21 12668.4,4568.26 12665,4568.26C12661.6,4568.26 12658.8,4569.21 12656.6,4571.12C12654.4,4573.03 12653.3,4575.71 12653.3,4579.16L12653.3,4579.86C12653.3,4583.31 12654.4,4585.99 12656.6,4587.9C12658.8,4589.81 12661.6,4590.77 12665,4590.77ZM12776.2,4589.28L12787.1,4589.28C12789.7,4589.28 12791.8,4588.73 12793.4,4587.62C12794.9,4586.51 12795.7,4584.94 12795.7,4582.91L12795.7,4582.27C12795.7,4580.24 12794.9,4578.67 12793.4,4577.57C12791.9,4576.46 12789.8,4575.9 12787.1,4575.9L12776.2,4575.9L12776.2,4589.28ZM12776.2,4568.19L12787,4568.19C12789.5,4568.19 12791.6,4567.64 12793.1,4566.56C12794.7,4565.47 12795.4,4563.96 12795.4,4562.03L12795.4,4561.32C12795.4,4559.39 12794.7,4557.88 12793.1,4556.79C12791.6,4555.7 12789.5,4555.16 12787,4555.16L12776.2,4555.16L12776.2,4568.19ZM12659.2,4557.85L12665.3,4547.59L12676,4547.59L12667.5,4557.85L12659.2,4557.85ZM13112.2,4557.57C13110.5,4557.57 13109,4557.08 13107.8,4556.12C13106.6,4555.15 13106,4553.86 13106,4552.26C13106,4550.65 13106.6,4549.37 13107.8,4548.4C13109,4547.43 13110.5,4546.95 13112.2,4546.95C13114,4546.95 13115.4,4547.43 13116.6,4548.4C13117.8,4549.37 13118.4,4550.65 13118.4,4552.26C13118.4,4553.86 13117.8,4555.15 13116.6,4556.12C13115.4,4557.08 13114,4557.57 13112.2,4557.57ZM12631.2,4557.57C12629.6,4557.57 12628.1,4557.08 12626.9,4556.12C12625.6,4555.15 12625,4553.86 12625,4552.26C12625,4550.65 12625.6,4549.37 12626.9,4548.4C12628.1,4547.43 12629.6,4546.95 12631.2,4546.95C12633,4546.95 12634.5,4547.43 12635.7,4548.4C12636.9,4549.37 12637.5,4550.65 12637.5,4552.26C12637.5,4553.86 12636.9,4555.15 12635.7,4556.12C12634.5,4557.08 12633,4557.57 12631.2,4557.57Z" style="fill:rgb(54,35,93);fill-rule:nonzero;"/>
            </g>
        </g>
    </g>
</svg>
