<?xml version="1.0" encoding="UTF-8" standalone="no"?>
<!DOCTYPE svg PUBLIC "-//W3C//DTD SVG 1.1//EN" "http://www.w3.org/Graphics/SVG/1.1/DTD/svg11.dtd">
<svg width="100%" height="100%" viewBox="0 0 1419 531" version="1.1" xmlns="http://www.w3.org/2000/svg" xmlns:xlink="http://www.w3.org/1999/xlink" xml:space="preserve" xmlns:serif="http://www.serif.com/" style="fill-rule:evenodd;clip-rule:evenodd;stroke-linejoin:round;stroke-miterlimit:2;">
    <g transform="matrix(1,0,0,1,-13631,-4115)">
        <g id="Koinos-logo-light-spanish" transform="matrix(0.687441,0,0,0.547925,13631.3,3283.76)">
            <rect x="0" y="1518.87" width="2062.72" height="967.285" style="fill:none;"/>
            <g transform="matrix(1.18242,0,0,1.42394,-64.2786,-722.891)">
                <g id="logo" transform="matrix(1.23025,0,0,1.2817,-12886,-2701.39)">
                    <path d="M11551.8,3518.38C11501.6,3518.38 11467.8,3540.72 11467.8,3577.24C11467.8,3613.77 11496.4,3628.56 11542,3637.62L11557,3640.64C11589.1,3646.98 11609,3654.53 11609,3675.96C11609,3697.09 11589.1,3711.88 11553.5,3711.88C11517.6,3711.88 11493.9,3696.49 11493.9,3663.88L11493.9,3661.17L11459.8,3661.17L11459.8,3663.88C11459.8,3712.49 11498.8,3738.14 11553.5,3738.14C11607.9,3738.14 11642.8,3712.79 11642.8,3675.36C11642.8,3637.62 11610.7,3623.13 11565,3614.07L11550.1,3611.06C11518.3,3604.72 11502,3597.17 11502,3576.64C11502,3556.11 11520.8,3544.64 11551.8,3544.64C11583.5,3544.64 11605.8,3556.11 11605.8,3584.79L11605.8,3592.94L11640,3592.94L11640,3584.79C11640,3540.72 11602,3518.38 11551.8,3518.38ZM10759.5,3603.81L10759.5,3652.71C10759.5,3708.26 10797.5,3738.14 10856.7,3738.14C10916,3738.14 10954,3708.26 10954,3652.71L10954,3603.81C10954,3548.26 10916,3518.38 10856.7,3518.38C10797.5,3518.38 10759.5,3548.26 10759.5,3603.81ZM11252,3603.81L11252,3652.71C11252,3708.26 11290,3738.14 11349.3,3738.14C11408.5,3738.14 11446.5,3708.26 11446.5,3652.71L11446.5,3603.81C11446.5,3548.26 11408.5,3518.38 11349.3,3518.38C11290,3518.38 11252,3548.26 11252,3603.81ZM10767.6,3522.61L10718.5,3522.61L10604.5,3618.6L10601,3618.6L10601,3522.61L10566.5,3522.61L10566.5,3733.92L10601,3733.92L10601,3658.45L10636.5,3629.47L10720.9,3733.92L10763.8,3733.92L10660.9,3609.55L10767.6,3522.61ZM10979.1,3522.61L10979.1,3733.92L11013.6,3733.92L11013.6,3522.61L10979.1,3522.61ZM11047.1,3522.61L11047.1,3733.92L11081.6,3733.92L11081.6,3553.7L11085.1,3553.7L11168,3733.92L11226.9,3733.92L11226.9,3522.61L11192.4,3522.61L11192.4,3702.83L11188.9,3702.83L11106,3522.61L11047.1,3522.61ZM10794,3602.6C10794,3566.98 10817.3,3544.94 10856.7,3544.94C10896.1,3544.94 10919.5,3566.98 10919.5,3602.6L10919.5,3653.92C10919.5,3689.54 10896.1,3711.58 10856.7,3711.58C10817.3,3711.58 10794,3689.54 10794,3653.92L10794,3602.6ZM11286.5,3602.6C11286.5,3566.98 11309.9,3544.94 11349.3,3544.94C11388.7,3544.94 11412,3566.98 11412,3602.6L11412,3653.92C11412,3689.54 11388.7,3711.58 11349.3,3711.58C11309.9,3711.58 11286.5,3689.54 11286.5,3653.92L11286.5,3602.6Z" style="fill:rgb(245,245,245);fill-rule:nonzero;"/>
                </g>
                <g id="mark" transform="matrix(0.598462,0,0,0.623488,1295.05,-397.297)">
                    <path d="M345.135,3373.44C345.135,3373.44 540,3260.93 540,3260.93L734.865,3373.44C735.406,3373.75 735.74,3374.33 735.74,3374.95L735.74,3598.95C735.74,3599.58 735.406,3600.15 734.865,3600.47L540.875,3712.47L540.85,3712.48L540.824,3712.49L540.798,3712.51L540.772,3712.52L540.746,3712.53L540.72,3712.55L540.693,3712.56L540.667,3712.57L540.64,3712.58L540.613,3712.59L540.586,3712.6L540.559,3712.61L540.532,3712.62L540.504,3712.63L540.477,3712.64L540.449,3712.64L540.422,3712.65L540.394,3712.66L540.366,3712.66L540.338,3712.67L540.31,3712.67L540.282,3712.68L540.254,3712.68L540.226,3712.69L540.198,3712.69L540.165,3712.69L540.138,3712.7L540.108,3712.7L540.071,3712.7L540.042,3712.7L540.014,3712.7L539.986,3712.7L539.958,3712.7L539.925,3712.7L539.895,3712.7L539.858,3712.7L539.83,3712.69L539.802,3712.69L539.774,3712.69L539.746,3712.68L539.718,3712.68L539.69,3712.67L539.662,3712.67L539.634,3712.66L539.606,3712.66L539.578,3712.65L539.551,3712.64L539.523,3712.64L539.496,3712.63L539.468,3712.62L539.441,3712.61L539.414,3712.6L539.387,3712.59L539.36,3712.58L539.333,3712.57L539.307,3712.56L539.28,3712.55L539.254,3712.53L539.228,3712.52L539.202,3712.51L539.176,3712.49L539.15,3712.48L539.125,3712.47C539.125,3712.47 345.135,3600.47 345.135,3600.47C344.594,3600.15 344.26,3599.58 344.26,3598.95L344.26,3374.95C344.26,3374.33 344.594,3373.75 345.135,3373.44ZM347.76,3597.94L538.25,3707.92L538.25,3583.96L455.987,3536.47C455.445,3536.15 455.112,3535.58 455.112,3534.95L455.112,3439.96L347.76,3377.98L347.76,3597.94ZM624.888,3439.96L624.888,3535.96L541.75,3583.96L541.75,3707.92L732.24,3597.94L732.24,3377.98L624.888,3439.96ZM458.612,3533.94L538.25,3579.92L538.25,3487.96L458.612,3441.98L458.612,3533.94ZM621.388,3442.63L541.75,3488.61L541.75,3579.92L621.388,3533.94L621.388,3442.63ZM460.362,3438.95L540,3484.93L619.638,3438.95L540,3392.97L460.362,3438.95ZM540,3388.93L623.138,3436.93L730.49,3374.95L540,3264.97L349.51,3374.95L456.862,3436.93L540,3388.93Z" style="fill:none;stroke:rgb(245,245,245);stroke-width:16.45px;"/>
                </g>
            </g>
            <g transform="matrix(1.45467,0,0,1.82507,-19829,-5993.08)">
                <path d="M14737.2,4597.99C14735.1,4597.99 14733.4,4597.4 14732,4596.22C14730.6,4595.04 14729.9,4593.53 14729.9,4591.69C14729.9,4589.89 14730.6,4588.41 14732,4587.23C14733.4,4586.05 14735.1,4585.46 14737.2,4585.46C14739.3,4585.46 14741,4586.05 14742.4,4587.23C14743.7,4588.41 14744.4,4589.92 14744.4,4591.76C14744.4,4593.6 14743.7,4595.1 14742.4,4596.25C14741,4597.41 14739.3,4597.99 14737.2,4597.99ZM14221.4,4597.99C14217.4,4597.99 14213.7,4597.27 14210.6,4595.83C14207.4,4594.39 14204.9,4592.34 14203,4589.67C14201.2,4587 14200.3,4583.81 14200.3,4580.08L14200.3,4578.94C14200.3,4575.22 14201.2,4572.01 14203,4569.32C14204.9,4566.63 14207.4,4564.58 14210.6,4563.16C14213.7,4561.74 14217.4,4561.04 14221.4,4561.04C14225.4,4561.04 14229,4561.74 14232.2,4563.16C14235.3,4564.58 14237.8,4566.63 14239.7,4569.32C14241.5,4572.01 14242.4,4575.22 14242.4,4578.94L14242.4,4580.08C14242.4,4583.81 14241.5,4587 14239.7,4589.67C14237.8,4592.34 14235.3,4594.39 14232.2,4595.83C14229,4597.27 14225.4,4597.99 14221.4,4597.99ZM14155.8,4597.99C14151.8,4597.99 14148.3,4597.28 14145.1,4595.86C14142,4594.45 14139.5,4592.39 14137.6,4589.7C14135.8,4587.02 14134.9,4583.78 14134.9,4580.01L14134.9,4579.02C14134.9,4575.24 14135.8,4572.01 14137.6,4569.32C14139.5,4566.63 14142,4564.58 14145.1,4563.16C14148.3,4561.74 14151.8,4561.04 14155.8,4561.04C14159.6,4561.04 14162.9,4561.63 14165.7,4562.81C14168.4,4563.99 14170.7,4565.6 14172.3,4567.65C14174,4569.71 14175.1,4572.01 14175.6,4574.56L14166.5,4576.19C14166.3,4574.72 14165.8,4573.39 14165,4572.19C14164.2,4570.98 14163,4570.03 14161.5,4569.32C14160,4568.61 14158.2,4568.26 14156,4568.26C14153.8,4568.26 14151.8,4568.67 14150,4569.49C14148.2,4570.32 14146.8,4571.56 14145.8,4573.21C14144.8,4574.86 14144.3,4576.85 14144.3,4579.16L14144.3,4579.86C14144.3,4582.18 14144.8,4584.15 14145.8,4585.78C14146.8,4587.4 14148.2,4588.64 14150,4589.49C14151.8,4590.34 14153.8,4590.77 14156,4590.77C14159.3,4590.77 14161.8,4590.02 14163.6,4588.54C14165.3,4587.05 14166.4,4585.13 14166.8,4582.77L14175.9,4584.61C14175.2,4587.06 14174,4589.3 14172.3,4591.33C14170.7,4593.36 14168.4,4594.98 14165.7,4596.18C14162.9,4597.39 14159.6,4597.99 14155.8,4597.99ZM14407.9,4597.99C14403.9,4597.99 14400.3,4597.27 14397.1,4595.83C14393.9,4594.39 14391.4,4592.34 14389.6,4589.67C14387.7,4587 14386.8,4583.81 14386.8,4580.08L14386.8,4578.94C14386.8,4575.22 14387.7,4572.01 14389.6,4569.32C14391.4,4566.63 14393.9,4564.58 14397.1,4563.16C14400.3,4561.74 14403.9,4561.04 14407.9,4561.04C14411.9,4561.04 14415.5,4561.74 14418.7,4563.16C14421.9,4564.58 14424.4,4566.63 14426.2,4569.32C14428,4572.01 14428.9,4575.22 14428.9,4578.94L14428.9,4580.08C14428.9,4583.81 14428,4587 14426.2,4589.67C14424.4,4592.34 14421.9,4594.39 14418.7,4595.83C14415.5,4597.27 14411.9,4597.99 14407.9,4597.99ZM14455.7,4597.99C14451.8,4597.99 14448.3,4597.28 14445.1,4595.86C14441.9,4594.45 14439.4,4592.39 14437.6,4589.7C14435.8,4587.02 14434.9,4583.78 14434.9,4580.01L14434.9,4579.02C14434.9,4575.24 14435.8,4572.01 14437.6,4569.32C14439.4,4566.63 14441.9,4564.58 14445.1,4563.16C14448.3,4561.74 14451.8,4561.04 14455.7,4561.04C14459.6,4561.04 14462.9,4561.63 14465.7,4562.81C14468.4,4563.99 14470.6,4565.6 14472.3,4567.65C14474,4569.71 14475.1,4572.01 14475.6,4574.56L14466.5,4576.19C14466.3,4574.72 14465.8,4573.39 14465,4572.19C14464.1,4570.98 14463,4570.03 14461.5,4569.32C14460,4568.61 14458.1,4568.26 14456,4568.26C14453.7,4568.26 14451.7,4568.67 14450,4569.49C14448.2,4570.32 14446.8,4571.56 14445.8,4573.21C14444.8,4574.86 14444.3,4576.85 14444.3,4579.16L14444.3,4579.86C14444.3,4582.18 14444.8,4584.15 14445.8,4585.78C14446.8,4587.4 14448.2,4588.64 14450,4589.49C14451.7,4590.34 14453.7,4590.77 14456,4590.77C14459.3,4590.77 14461.8,4590.02 14463.5,4588.54C14465.2,4587.05 14466.3,4585.13 14466.8,4582.77L14475.8,4584.61C14475.2,4587.06 14474,4589.3 14472.3,4591.33C14470.6,4593.36 14468.4,4594.98 14465.7,4596.18C14462.9,4597.39 14459.6,4597.99 14455.7,4597.99ZM14040.4,4597.99C14036.4,4597.99 14032.8,4597.27 14029.6,4595.83C14026.4,4594.39 14023.9,4592.34 14022.1,4589.67C14020.2,4587 14019.3,4583.81 14019.3,4580.08L14019.3,4578.94C14019.3,4575.22 14020.2,4572.01 14022.1,4569.32C14023.9,4566.63 14026.4,4564.58 14029.6,4563.16C14032.8,4561.74 14036.4,4561.04 14040.4,4561.04C14044.5,4561.04 14048.1,4561.74 14051.2,4563.16C14054.4,4564.58 14056.9,4566.63 14058.7,4569.32C14060.5,4572.01 14061.4,4575.22 14061.4,4578.94L14061.4,4580.08C14061.4,4583.81 14060.5,4587 14058.7,4589.67C14056.9,4592.34 14054.4,4594.39 14051.2,4595.83C14048.1,4597.27 14044.5,4597.99 14040.4,4597.99ZM14543.3,4597.99C14539.4,4597.99 14535.9,4597.28 14532.7,4595.86C14529.5,4594.45 14527.1,4592.39 14525.2,4589.7C14523.4,4587.02 14522.5,4583.78 14522.5,4580.01L14522.5,4579.02C14522.5,4575.24 14523.4,4572.01 14525.2,4569.32C14527.1,4566.63 14529.5,4564.58 14532.7,4563.16C14535.9,4561.74 14539.4,4561.04 14543.3,4561.04C14547.2,4561.04 14550.5,4561.63 14553.3,4562.81C14556,4563.99 14558.2,4565.6 14559.9,4567.65C14561.6,4569.71 14562.7,4572.01 14563.2,4574.56L14554.1,4576.19C14553.9,4574.72 14553.4,4573.39 14552.6,4572.19C14551.8,4570.98 14550.6,4570.03 14549.1,4569.32C14547.6,4568.61 14545.8,4568.26 14543.6,4568.26C14541.3,4568.26 14539.3,4568.67 14537.6,4569.49C14535.8,4570.32 14534.4,4571.56 14533.4,4573.21C14532.4,4574.86 14531.9,4576.85 14531.9,4579.16L14531.9,4579.86C14531.9,4582.18 14532.4,4584.15 14533.4,4585.78C14534.4,4587.4 14535.8,4588.64 14537.6,4589.49C14539.3,4590.34 14541.3,4590.77 14543.6,4590.77C14546.9,4590.77 14549.4,4590.02 14551.1,4588.54C14552.9,4587.05 14553.9,4585.13 14554.4,4582.77L14563.4,4584.61C14562.8,4587.06 14561.6,4589.3 14559.9,4591.33C14558.2,4593.36 14556,4594.98 14553.3,4596.18C14550.5,4597.39 14547.2,4597.99 14543.3,4597.99ZM14631.3,4597.99C14628.4,4597.99 14625.9,4597.55 14623.6,4596.68C14621.3,4595.8 14619.5,4594.54 14618.2,4592.89C14616.8,4591.24 14616.2,4589.21 14616.2,4586.8C14616.2,4584.44 14616.8,4582.46 14618.2,4580.86C14619.5,4579.25 14621.3,4578.04 14623.7,4577.21C14626,4576.39 14628.7,4575.97 14631.7,4575.97L14643.4,4575.97L14643.4,4573.85C14643.4,4572.01 14642.7,4570.51 14641.4,4569.35C14640.1,4568.2 14638.1,4567.62 14635.3,4567.62C14632.6,4567.62 14630.5,4568.17 14629.1,4569.28C14627.7,4570.39 14626.8,4571.82 14626.4,4573.57L14617.7,4571.09C14618.4,4569.25 14619.4,4567.57 14620.9,4566.06C14622.3,4564.55 14624.2,4563.34 14626.6,4562.42C14629,4561.5 14632,4561.04 14635.5,4561.04C14640.7,4561.04 14644.9,4562.18 14647.9,4564.47C14650.9,4566.76 14652.5,4570.07 14652.5,4574.41L14652.5,4588.15C14652.5,4589.56 14653.2,4590.27 14654.7,4590.27L14658.2,4590.27L14658.2,4596.99L14651.6,4596.99C14649.6,4596.99 14648,4596.57 14646.7,4595.72C14645.5,4594.87 14644.9,4593.72 14644.9,4592.25L14644.9,4592.11L14643.5,4592.11C14643.1,4592.77 14642.6,4593.57 14641.7,4594.52C14640.9,4595.46 14639.7,4596.28 14638,4596.96C14636.4,4597.64 14634.1,4597.99 14631.3,4597.99ZM14104.1,4597.56C14101,4597.56 14098.2,4596.96 14095.8,4595.76C14093.4,4594.55 14091.6,4592.85 14090.3,4590.66C14089,4588.47 14088.3,4585.91 14088.3,4582.98L14088.3,4562.03L14097.6,4562.03L14097.6,4582.34C14097.6,4585.17 14098.4,4587.27 14100.1,4588.64C14101.7,4590.01 14103.9,4590.69 14106.9,4590.69C14110.2,4590.69 14112.8,4589.75 14114.8,4587.86C14116.7,4585.98 14117.7,4583.26 14117.7,4579.72L14117.7,4562.03L14127,4562.03L14127,4596.99L14117.8,4596.99L14117.8,4592.11L14116.4,4592.11C14115.7,4593.39 14114.4,4594.61 14112.6,4595.79C14110.7,4596.97 14107.9,4597.56 14104.1,4597.56ZM13936.1,4596.99L13936.1,4547.45L13972.6,4547.45L13972.6,4555.16L13946,4555.16L13946,4568.19L13970.3,4568.19L13970.3,4575.9L13946,4575.9L13946,4589.28L13973,4589.28L13973,4596.99L13936.1,4596.99ZM14069.4,4596.99L14069.4,4547.45L14078.8,4547.45L14078.8,4596.99L14069.4,4596.99ZM14369.5,4596.99L14369.5,4547.45L14378.9,4547.45L14378.9,4596.99L14369.5,4596.99ZM14183,4596.99L14183,4562.03L14192.4,4562.03L14192.4,4596.99L14183,4596.99ZM14315.1,4596.99L14315.1,4589.49L14322.8,4589.49L14322.8,4554.95L14315.1,4554.95L14315.1,4547.45L14344.4,4547.45C14347.8,4547.45 14350.8,4547.95 14353.4,4548.97C14356,4549.98 14358,4551.42 14359.5,4553.28C14360.9,4555.15 14361.6,4557.38 14361.6,4559.98L14361.6,4560.61C14361.6,4562.88 14361.2,4564.74 14360.2,4566.2C14359.2,4567.67 14358,4568.8 14356.7,4569.6C14355.3,4570.4 14354,4570.97 14352.7,4571.3L14352.7,4572.5C14354,4572.79 14355.3,4573.32 14356.8,4574.1C14358.2,4574.88 14359.5,4576.01 14360.5,4577.49C14361.5,4578.98 14362,4580.9 14362,4583.26L14362,4583.97C14362,4586.66 14361.2,4588.98 14359.7,4590.94C14358.2,4592.9 14356.2,4594.4 14353.6,4595.44C14351,4596.48 14348,4596.99 14344.6,4596.99L14315.1,4596.99ZM14663.9,4596.99L14663.9,4562.03L14673.3,4562.03L14673.3,4596.99L14663.9,4596.99ZM14570.6,4596.99L14570.6,4547.45L14580,4547.45L14580,4566.63L14581.3,4566.63C14581.8,4565.83 14582.5,4565.02 14583.5,4564.22C14584.4,4563.42 14585.7,4562.76 14587.3,4562.24C14589,4561.72 14591,4561.46 14593.4,4561.46C14596.5,4561.46 14599.3,4562.06 14601.7,4563.27C14604.1,4564.47 14606,4566.16 14607.3,4568.33C14608.6,4570.5 14609.3,4573.07 14609.3,4576.04L14609.3,4596.99L14599.9,4596.99L14599.9,4576.68C14599.9,4573.85 14599.1,4571.74 14597.5,4570.35C14595.9,4568.95 14593.6,4568.26 14590.7,4568.26C14587.3,4568.26 14584.7,4569.21 14582.8,4571.12C14580.9,4573.03 14580,4575.76 14580,4579.3L14580,4596.99L14570.6,4596.99ZM14250.3,4596.99L14250.3,4562.03L14259.6,4562.03L14259.6,4566.91L14260.9,4566.91C14261.7,4565.59 14262.9,4564.34 14264.8,4563.16C14266.6,4561.98 14269.4,4561.39 14273.2,4561.39C14276.3,4561.39 14279.1,4562 14281.5,4563.23C14283.9,4564.46 14285.7,4566.16 14287.1,4568.33C14288.4,4570.5 14289.1,4573.07 14289.1,4576.04L14289.1,4596.99L14279.7,4596.99L14279.7,4576.68C14279.7,4573.85 14278.9,4571.74 14277.3,4570.35C14275.6,4568.95 14273.4,4568.26 14270.4,4568.26C14267.1,4568.26 14264.5,4569.21 14262.6,4571.12C14260.7,4573.03 14259.7,4575.76 14259.7,4579.3L14259.7,4596.99L14250.3,4596.99ZM14482.9,4596.99L14482.9,4547.45L14492.3,4547.45L14492.3,4575.26L14493.7,4575.26L14508.3,4562.03L14520.6,4562.03L14501.1,4578.94L14521.3,4596.99L14509.1,4596.99L14493.7,4582.77L14492.3,4582.77L14492.3,4596.99L14482.9,4596.99ZM14683.2,4596.99L14683.2,4562.03L14692.4,4562.03L14692.4,4566.91L14693.8,4566.91C14694.5,4565.59 14695.8,4564.34 14697.7,4563.16C14699.5,4561.98 14702.3,4561.39 14706.1,4561.39C14709.2,4561.39 14711.9,4562 14714.3,4563.23C14716.7,4564.46 14718.6,4566.16 14719.9,4568.33C14721.3,4570.5 14721.9,4573.07 14721.9,4576.04L14721.9,4596.99L14712.5,4596.99L14712.5,4576.68C14712.5,4573.85 14711.7,4571.74 14710.1,4570.35C14708.5,4568.95 14706.2,4568.26 14703.3,4568.26C14700,4568.26 14697.4,4569.21 14695.4,4571.12C14693.5,4573.03 14692.6,4575.76 14692.6,4579.3L14692.6,4596.99L14683.2,4596.99ZM13988.8,4596.99L13975.5,4562.03L13985.5,4562.03L13995.5,4591.05L13996.8,4591.05L14006.9,4562.03L14016.9,4562.03L14003.6,4596.99L13988.8,4596.99ZM14632.8,4591.33C14635.9,4591.33 14638.5,4590.57 14640.4,4589.03C14642.4,4587.5 14643.4,4585.43 14643.4,4582.84L14643.4,4582.13L14632.3,4582.13C14630.2,4582.13 14628.6,4582.51 14627.4,4583.26C14626.1,4584.02 14625.5,4585.13 14625.5,4586.59C14625.5,4588.01 14626.1,4589.15 14627.4,4590.02C14628.7,4590.9 14630.5,4591.33 14632.8,4591.33ZM14040.4,4590.77C14043.9,4590.77 14046.7,4589.81 14048.8,4587.9C14051,4585.99 14052.1,4583.31 14052.1,4579.86L14052.1,4579.16C14052.1,4575.71 14051,4573.03 14048.8,4571.12C14046.7,4569.21 14043.9,4568.26 14040.4,4568.26C14037,4568.26 14034.2,4569.21 14032,4571.12C14029.8,4573.03 14028.7,4575.71 14028.7,4579.16L14028.7,4579.86C14028.7,4583.31 14029.8,4585.99 14032,4587.9C14034.2,4589.81 14037,4590.77 14040.4,4590.77ZM14407.9,4590.77C14411.3,4590.77 14414.1,4589.81 14416.3,4587.9C14418.5,4585.99 14419.6,4583.31 14419.6,4579.86L14419.6,4579.16C14419.6,4575.71 14418.5,4573.03 14416.3,4571.12C14414.1,4569.21 14411.3,4568.26 14407.9,4568.26C14404.5,4568.26 14401.7,4569.21 14399.5,4571.12C14397.3,4573.03 14396.2,4575.71 14396.2,4579.16L14396.2,4579.86C14396.2,4583.31 14397.3,4585.99 14399.5,4587.9C14401.7,4589.81 14404.5,4590.77 14407.9,4590.77ZM14221.4,4590.77C14224.8,4590.77 14227.6,4589.81 14229.8,4587.9C14232,4585.99 14233.1,4583.31 14233.1,4579.86L14233.1,4579.16C14233.1,4575.71 14232,4573.03 14229.8,4571.12C14227.6,4569.21 14224.8,4568.26 14221.4,4568.26C14218,4568.26 14215.1,4569.21 14213,4571.12C14210.8,4573.03 14209.7,4575.71 14209.7,4579.16L14209.7,4579.86C14209.7,4583.31 14210.8,4585.99 14213,4587.9C14215.1,4589.81 14218,4590.77 14221.4,4590.77ZM14332.6,4589.28L14343.5,4589.28C14346.1,4589.28 14348.2,4588.73 14349.8,4587.62C14351.3,4586.51 14352.1,4584.94 14352.1,4582.91L14352.1,4582.27C14352.1,4580.24 14351.3,4578.67 14349.8,4577.57C14348.3,4576.46 14346.2,4575.9 14343.5,4575.9L14332.6,4575.9L14332.6,4589.28ZM14332.6,4568.19L14343.4,4568.19C14345.9,4568.19 14348,4567.64 14349.5,4566.56C14351.1,4565.47 14351.8,4563.96 14351.8,4562.03L14351.8,4561.32C14351.8,4559.39 14351.1,4557.88 14349.5,4556.79C14348,4555.7 14345.9,4555.16 14343.4,4555.16L14332.6,4555.16L14332.6,4568.19ZM14215.6,4557.85L14221.7,4547.59L14232.4,4547.59L14223.9,4557.85L14215.6,4557.85ZM14668.6,4557.57C14666.9,4557.57 14665.4,4557.08 14664.2,4556.12C14663,4555.15 14662.3,4553.86 14662.3,4552.26C14662.3,4550.65 14663,4549.37 14664.2,4548.4C14665.4,4547.43 14666.9,4546.95 14668.6,4546.95C14670.4,4546.95 14671.8,4547.43 14673,4548.4C14674.2,4549.37 14674.8,4550.65 14674.8,4552.26C14674.8,4553.86 14674.2,4555.15 14673,4556.12C14671.8,4557.08 14670.4,4557.57 14668.6,4557.57ZM14187.6,4557.57C14185.9,4557.57 14184.5,4557.08 14183.3,4556.12C14182,4555.15 14181.4,4553.86 14181.4,4552.26C14181.4,4550.65 14182,4549.37 14183.3,4548.4C14184.5,4547.43 14185.9,4546.95 14187.6,4546.95C14189.4,4546.95 14190.9,4547.43 14192.1,4548.4C14193.3,4549.37 14193.8,4550.65 14193.8,4552.26C14193.8,4553.86 14193.3,4555.15 14192.1,4556.12C14190.9,4557.08 14189.4,4557.57 14187.6,4557.57Z" style="fill:rgb(245,245,245);fill-rule:nonzero;"/>
            </g>
        </g>
    </g>
</svg>
