<?xml version="1.0" encoding="UTF-8"?><svg id="Layer_1" xmlns="http://www.w3.org/2000/svg" viewBox="0 0 609.61 609.61"><defs><style>.cls-1,.cls-2{fill:none;}.cls-1,.cls-3{stroke-width:0px;}.cls-2{stroke:#fff;stroke-linejoin:round;stroke-width:9.56px;}.cls-3{fill:#25174e;}</style></defs><g id="koinos-icon-dark"><rect class="cls-1" width="609.61" height="609.61"/><circle class="cls-3" cx="307.6" cy="306.01" r="263.88"/><path class="cls-2" d="m153.81,217.46l152.19-87.87,152.19,87.87c.42.24.68.7.68,1.18v174.94c0,.49-.26.94-.68,1.19l-151.5,87.47h-.02s-.02.02-.02.02l-.02.02-.04.02-.02.02h-.02s-.02.02-.02.02l-.11.04h-.02s-.02.02-.02.02h-.04s-.02.02-.02.02h-.04s-.02,0-.02,0h-.02s-.02,0-.02,0h-.02s-.05,0-.05,0h-.02s-.22,0-.22,0h-.02s-.04,0-.04,0h-.02s-.02,0-.02,0h-.02s-.02,0-.02,0h-.02s-.02,0-.02,0h-.02s-.02-.02-.02-.02h-.04s-.02-.02-.02-.02l-.11-.04h-.02s-.02-.02-.02-.02l-.02-.02-.04-.02-.02-.02h-.02s-.02-.02-.02-.02l-151.5-87.47c-.42-.25-.68-.69-.68-1.19v-174.94c0-.48.26-.94.68-1.18Zm2.05,175.33l148.77,85.89v-96.81l-64.25-37.09c-.42-.25-.68-.69-.68-1.19v-74.19l-83.84-48.41v171.79Zm216.43-123.38v74.98l-64.93,37.49v96.81l148.77-85.89v-171.79l-83.84,48.41Zm-129.86,73.4l62.2,35.91v-71.82l-62.2-35.91v71.82Zm127.13-71.31l-62.2,35.91v71.31l62.2-35.91v-71.31Zm-125.76-2.87l62.2,35.91,62.2-35.91-62.2-35.91-62.2,35.91Zm62.2-39.07l64.93,37.49,83.84-48.41-148.77-85.89-148.77,85.89,83.84,48.41,64.93-37.49Z"/></g></svg>