<?xml version="1.0" encoding="UTF-8"?><svg id="Layer_1" xmlns="http://www.w3.org/2000/svg" viewBox="0 0 609.62 609.62"><defs><style>.cls-1{fill:none;}.cls-1,.cls-2{stroke-width:0px;}.cls-3{fill:#43298c;fill-rule:evenodd;stroke:#43298c;stroke-linejoin:round;stroke-width:11.91px;}.cls-2{fill:#fff;}</style></defs><g id="koinos-icon-light"><rect class="cls-1" width="609.62" height="609.62"/><circle class="cls-2" cx="306.39" cy="304.81" r="262.85"/><path class="cls-3" d="m153.21,216.61l151.6-87.53,151.6,87.53c.42.24.68.69.68,1.17v174.26c0,.49-.26.93-.68,1.18l-150.92,87.13h-.02s-.02.02-.02.02l-.02.02-.04.02-.02.02h-.02s-.02.02-.02.02l-.11.04h-.02s-.02.02-.02.02h-.04s-.02.02-.02.02h-.04s-.02,0-.02,0h-.02s-.02,0-.02,0h-.02s-.05,0-.05,0h-.02s-.22,0-.22,0h-.02s-.04,0-.04,0h-.02s-.02,0-.02,0h-.02s-.02,0-.02,0h-.02s-.02,0-.02,0h-.02s-.02-.02-.02-.02h-.04s-.02-.02-.02-.02l-.11-.04h-.02s-.02-.02-.02-.02l-.02-.02-.04-.02-.02-.02h-.02s-.02-.02-.02-.02l-150.92-87.13c-.42-.25-.68-.69-.68-1.18v-174.26c0-.48.26-.93.68-1.17Zm2.04,174.65l148.19,85.56v-96.43l-64-36.94c-.42-.25-.68-.69-.68-1.18v-73.9l-83.51-48.22v171.12Zm215.59-122.9v74.68l-64.68,37.34v96.43l148.19-85.56v-171.12l-83.51,48.22Zm-129.36,73.11l61.95,35.77v-71.54l-61.95-35.77v71.54Zm126.63-71.03l-61.95,35.77v71.03l61.95-35.77v-71.03Zm-125.27-2.86l61.95,35.77,61.95-35.77-61.95-35.77-61.95,35.77Zm61.95-38.91l64.68,37.34,83.51-48.22-148.19-85.56-148.19,85.56,83.51,48.22,64.68-37.34Z"/></g></svg>